<svg width="263" height="84" viewBox="0 0 263 84" fill="none" xmlns="http://www.w3.org/2000/svg">
<path fill-rule="evenodd" clip-rule="evenodd" d="M102.481 2.82588C102.481 5.65188 102.342 5.74088 98.7991 5.16588L95.1161 4.56788L97.3701 7.73288C99.7591 11.0869 99.8961 10.8219 94.9811 12.3579C92.6791 13.0769 93.1971 14.6009 95.9811 15.2999C98.4951 15.9309 99.3421 18.2389 97.4811 19.3889C95.8381 20.4039 96.2861 23.1819 97.9811 22.4959C98.8061 22.1619 100.156 21.6159 100.981 21.2819C102.119 20.8219 102.481 21.4109 102.481 23.7229C102.481 27.8689 103.914 28.4379 106.258 25.2209L108.208 22.5429L109.96 25.2159C112.353 28.8689 113.481 28.5689 113.481 24.2819C113.481 21.2389 113.755 20.7879 115.231 21.3949C120.628 23.6169 121.684 23.0639 118.949 19.4479C116.876 16.7069 117.065 16.2299 120.731 14.9509C123.329 14.0449 123.68 13.6269 122.481 12.8689C121.656 12.3469 120.194 11.9129 119.231 11.9039C117.087 11.8859 116.943 9.57988 118.981 7.88888C121.568 5.74188 120.698 4.62588 116.981 5.32288C113.603 5.95688 113.481 5.87288 113.481 2.93388C113.481 -0.676122 112.206 -0.966122 109.986 2.13888L108.377 4.38888L106.519 2.13888C103.978 -0.938122 102.481 -0.683122 102.481 2.82588ZM64.2801 40.6389C64.4441 61.9509 64.7531 79.9159 64.9681 80.5589C65.5021 82.1649 75.0011 83.1419 80.4611 82.1519L84.9421 81.3399L85.0521 53.3649C85.1131 37.9779 85.5211 20.1019 85.9581 13.6389L86.7531 1.88888H75.3671H63.9811L64.2801 40.6389ZM202.273 25.1559C190.246 29.1559 183.129 39.9659 183.052 54.3499C183.019 60.6979 183.479 63.3469 185.24 66.9439C188.301 73.1939 192.96 77.7229 199.481 80.7849C204.179 82.9919 206.366 83.3699 214.481 83.3789C222.783 83.3879 224.537 83.0739 228.39 80.8889C234.879 77.2099 235.217 76.1749 232.128 69.4299C229.257 63.1579 229.857 63.3279 221.481 66.4149C213.986 69.1769 203.651 66.5779 202.688 61.6889C202.442 60.4399 205.007 60.1039 218.664 59.5959C238.107 58.8729 237.873 59.0139 237.232 48.3539C236.657 38.7969 231.6 31.0949 222.981 26.6519C218.144 24.1579 207.57 23.3939 202.273 25.1559ZM21.4811 25.5719C13.2781 26.9179 6.55909 31.9899 2.78909 39.6809C0.390088 44.5769 -0.00691005 46.5989 8.99526e-05 53.8889C0.00908995 64.1939 2.62709 70.9809 8.71109 76.4779C13.9281 81.1909 18.1981 82.8889 24.8371 82.8889C29.4001 82.8889 31.0651 82.3329 35.3691 79.3719C40.3181 75.9679 40.4811 75.9279 40.4961 78.1219C40.5281 82.8209 41.5541 83.2219 51.1211 82.2699L59.9811 81.3889L60.1321 57.8889C60.2161 44.9639 60.4411 33.2699 60.6321 31.9009C60.9461 29.6649 60.4761 29.2879 55.9811 28.1659C47.6001 26.0729 44.4011 26.1289 43.1171 28.3889C42.4921 29.4889 41.8711 30.5739 41.7371 30.7999C41.6031 31.0249 40.6201 30.4199 39.5531 29.4539C35.6251 25.8989 28.6351 24.3969 21.4811 25.5719ZM124.823 29.4399C124.496 30.2919 124.428 35.8399 124.672 41.7669C125.089 51.8899 125.335 52.9349 128.716 58.9669C130.695 62.4989 135.044 69.0489 138.378 73.5209C144.403 81.6019 144.476 81.6569 149.711 82.2339C160.197 83.3879 162.198 82.4159 169.597 72.5719C180.363 58.2509 181.481 55.3949 181.481 42.2059C181.481 36.0719 181.208 30.3409 180.874 29.4709C180.38 28.1839 178.517 27.8889 170.874 27.8889H161.481V39.1829C161.481 50.1539 161.388 50.6319 158.231 55.8649C156.444 58.8279 154.477 61.4139 153.861 61.6109C153.245 61.8079 151.22 59.6009 149.361 56.7069C146.083 51.6039 145.971 51.0879 145.647 39.6669L145.314 27.8889H135.366C127.302 27.8889 125.306 28.1829 124.823 29.4399ZM102.981 29.5899C98.6641 30.7539 96.9851 32.8159 96.8201 37.1579C96.7321 39.4849 95.2721 45.6639 93.5771 50.8889C89.1701 64.4689 88.7801 68.5949 91.4151 73.7589C97.3591 85.4099 109.977 83.9249 118.617 70.5579C125.2 60.3719 126.127 53.8889 121 53.8889C118.878 53.8889 118.052 54.8009 116.023 59.3889C114.213 63.4819 113.065 64.8889 111.536 64.8889C109.821 64.8889 109.481 64.2559 109.481 61.0639C109.481 58.9599 110.606 53.9319 111.981 49.8889C114.938 41.1939 115.199 34.9759 112.731 32.0029C110.896 29.7929 106.376 28.6749 102.981 29.5899ZM215.453 41.5799C216.617 43.0609 217.437 45.1979 217.275 46.3299C217.011 48.1759 216.18 48.4189 209.231 48.6809C200.651 49.0039 200.087 48.4859 202.96 42.9299C204.649 39.6639 205.713 39.0779 210.158 38.9679C212.474 38.9099 213.91 39.6189 215.453 41.5799ZM37.5581 45.8119C42.9321 51.1869 40.8771 61.6129 33.9951 63.8839C26.2601 66.4369 19.4811 61.4629 19.4811 53.2349C19.4811 49.5949 20.0391 48.1769 22.4041 45.8119C24.7971 43.4189 26.1711 42.8889 29.9811 42.8889C33.7911 42.8889 35.1651 43.4189 37.5581 45.8119ZM242.176 57.7519C237.699 60.7039 236.052 63.8329 236.052 69.3919C236.052 77.2779 241.408 82.8889 248.935 82.8889C259.647 82.8889 266.032 71.3709 260.384 62.2329C256.562 56.0489 247.967 53.9329 242.176 57.7519Z" fill="black"/>
</svg>
