<svg width="228" height="32" viewBox="0 0 228 32" fill="none" xmlns="http://www.w3.org/2000/svg">
<path d="M0.70752 30.4349L6.99583 1.5882H15.014L21.2322 30.4349H14.4997L13.6582 24.8947H8.35168L7.51012 30.4349H0.70752ZM9.05297 19.7051H12.9335L10.9932 7.12846L9.05297 19.7051ZM38.7413 30.4349H23.8971V1.5882H30.6296V24.6142H38.7413V30.4349ZM56.5543 30.4349H41.7101V1.5882H48.4426V24.6142H56.5543V30.4349ZM59.5465 30.4349V1.5882H75.2322V7.19859H66.2322V12.5051H74.5309V18.3025H66.2322V24.5908H75.2322V30.4583H59.5465V30.4349ZM79.4166 30.4349V1.5882H86.4296L92.04 19.3778C91.8062 16.3856 91.6426 13.7908 91.5491 11.6168C91.4322 9.44274 91.3854 7.61937 91.3854 6.09989V1.56482H97.3932V30.4116H90.3569L84.7231 12.0843C84.9802 14.4687 85.1673 16.783 85.2841 19.0272C85.4244 21.2713 85.4712 23.4453 85.4712 25.5492V30.4116H79.4166V30.4349Z" fill="white"/>
<path d="M117.52 30.4351L116.445 28.9623C115.463 29.687 114.435 30.2247 113.359 30.5987C112.284 30.9494 111.162 31.1364 109.97 31.1364C107.422 31.1364 105.388 30.3416 103.822 28.752C102.255 27.1624 101.484 25.1052 101.484 22.5805C101.484 20.7338 101.905 19.0974 102.723 17.6481C103.541 16.1987 104.85 14.7727 106.673 13.3468C105.972 12.2948 105.435 11.2896 105.084 10.2844C104.733 9.30261 104.57 8.34417 104.57 7.4091C104.57 5.5156 105.248 3.94936 106.627 2.7104C107.983 1.47144 109.736 0.863647 111.863 0.863647C113.99 0.863647 115.72 1.42469 116.983 2.54676C118.268 3.66884 118.923 5.16495 118.923 7.03508C118.923 8.53118 118.549 9.86365 117.777 11.0325C117.006 12.2247 115.814 13.3234 114.201 14.3052L117.053 18.9104C117.31 18.2792 117.52 17.6481 117.684 16.9935C117.848 16.3623 117.941 15.7312 117.964 15.1H122.99C122.92 16.6429 122.663 18.1623 122.219 19.6818C121.775 21.1779 121.144 22.6507 120.302 24.0766L124.299 30.4117H117.52V30.4351ZM113.616 24.5675L109.409 17.8818C108.754 18.5364 108.263 19.1909 107.936 19.8688C107.609 20.5234 107.468 21.2247 107.468 21.9494C107.468 23.0714 107.796 24.0065 108.427 24.7312C109.058 25.4325 109.899 25.8065 110.928 25.8065C111.325 25.8065 111.723 25.713 112.167 25.5026C112.588 25.2922 113.079 24.9883 113.616 24.5675ZM111.279 10.2377C112.003 9.74677 112.541 9.23248 112.892 8.69482C113.242 8.15715 113.429 7.57274 113.429 6.98832C113.429 6.45066 113.266 6.02988 112.915 5.70261C112.564 5.37534 112.144 5.2117 111.583 5.2117C111.068 5.2117 110.648 5.37534 110.32 5.67923C110.016 6.00651 109.853 6.42728 109.853 6.94157C109.853 7.45586 109.946 7.97014 110.18 8.46105C110.39 8.97534 110.764 9.55975 111.279 10.2377Z" fill="white"/>
<path d="M127.502 30.435V1.58826H134.235V12.4818H139.658V1.58826H146.25V30.435H139.658V18.4662H134.235V30.435H127.502ZM150.949 30.435V1.58826H166.635V7.19865H157.635V12.5051H165.934V18.3025H157.635V24.5909H166.635V30.4584H150.949V30.435ZM168.739 30.435L175.027 1.58826H183.045L189.263 30.435H182.531L181.689 24.8948H176.383L175.541 30.435H168.739ZM177.061 19.7051H180.941L179.001 7.12852L177.061 19.7051ZM194.056 30.435V7.19865H188.656V1.58826H206.492V7.19865H200.812V30.435H194.056ZM209.25 30.435V1.58826H215.983V12.4818H221.406V1.58826H227.999V30.435H221.406V18.4662H215.983V30.435H209.25Z" fill="white"/>
</svg>
