<svg width="1309" height="516" viewBox="0 0 1309 516" fill="none" xmlns="http://www.w3.org/2000/svg">
<path d="M1259.72 42.9762H1266.11C1268.08 42.9762 1269.62 42.4509 1270.71 41.4429C1271.81 40.4349 1272.33 39.0335 1272.33 37.2375C1272.33 35.4415 1271.85 34.0389 1270.8 32.9882C1269.79 31.9362 1268.21 31.4549 1266.07 31.4549H1259.72V42.9762ZM1266.02 49.3722H1259.72V63.5215H1251.79V25.0149H1266.07C1270.58 25.0149 1274.09 26.0229 1276.58 28.0375C1279.03 30.0962 1280.26 32.8562 1280.26 36.6242C1280.26 39.2522 1279.69 41.4429 1278.55 43.1949C1277.41 44.9482 1275.71 46.3495 1273.38 47.3575L1281.71 63.0842V63.5215H1273.21L1266.02 49.3722ZM1264.93 78.8549C1245.61 78.8549 1229.88 63.1282 1229.88 43.8082C1229.88 24.4895 1245.61 8.76288 1264.93 8.76288C1284.25 8.76288 1299.97 24.4895 1299.97 43.8082C1299.97 63.1282 1284.25 78.8549 1264.93 78.8549ZM1264.93 0.000211012C1240.73 0.000211012 1221.12 19.6135 1221.12 43.8082C1221.12 68.0029 1240.73 87.6162 1264.93 87.6162C1289.12 87.6162 1308.74 68.0029 1308.74 43.8082C1308.74 19.6135 1289.12 0.000211012 1264.93 0.000211012Z" fill="#0A0C1C"/>
<path d="M130.276 280.239C130.276 218.201 175.807 182.585 235.205 176.197V45.0355C172.38 45.0355 113.316 69.5008 68.892 113.925C24.468 158.349 0 217.414 0 280.239C0 343.065 24.468 402.13 68.892 446.555C113.316 490.978 172.38 515.445 235.205 515.445V380.057C175.807 374.362 130.276 342.279 130.276 280.239Z" fill="#0A0C1C"/>
<path d="M600.74 280.24C595.045 339.639 562.963 385.169 500.923 385.169C432.143 385.169 395.824 329.213 395.824 260.433V255.579C428.055 271.705 463.832 280.24 500.923 280.24V149.964C438.884 149.964 403.268 104.433 396.88 45.0347H395.824H265.719V259.695V280.24C265.719 343.065 290.184 402.129 334.608 446.553C379.032 490.979 438.097 515.445 500.923 515.445C563.748 515.445 622.813 490.979 667.239 446.553C711.663 402.129 736.128 343.065 736.128 280.24H600.74Z" fill="#0A0C1C"/>
<path d="M835.532 237.939C791.108 282.365 766.643 341.429 766.643 404.254V405.305V515.445H901.093V424.061C901.093 355.279 933.067 299.323 1001.85 299.323V169.049C939.021 169.049 879.956 193.515 835.532 237.939Z" fill="#0A0C1C"/>
<path d="M1101.25 446.554C1056.82 402.128 1032.36 343.064 1032.36 280.239V155.174V45.035H1166.81V260.432C1166.81 329.214 1198.78 385.17 1267.56 385.17V515.444C1204.74 515.444 1145.67 490.978 1101.25 446.554Z" fill="#0A0C1C"/>
</svg>
