<svg width="158" height="30" viewBox="0 0 158 30" fill="none" xmlns="http://www.w3.org/2000/svg">
<g clip-path="url(#clip0_2_1761)">
<path d="M146.96 0.0213623L140.758 21.0085H140.694L135.785 0.0213623H124.067L119.3 21.0085H119.165L113.442 0.0213623H103.08L112.278 29.9357H124.952L129.448 11.4676H129.583L134.015 29.9357H147.302L157.05 0.0213623H146.96Z" fill="white"/>
<path d="M5.25173 0H44.9924L42.2665 17.3692H7.521L6.27932 25.2688H29.2075L25.4825 23.6846L26.2246 18.9462H30.963L30.6632 20.823L41.2817 25.2688L40.5395 30.0071H0.798828L3.51767 12.6308H38.2703L39.512 4.73834H16.5838L20.316 6.31541L19.5667 11.0538H14.8283L15.128 9.17697L4.50958 4.73834L5.25173 0Z" fill="white"/>
<path d="M89.4858 15.0143L93.325 8.59184L95.4658 15.0143H89.4858ZM56.4815 23.5276L57.3379 18.0757H71.7813L72.7874 11.6532H58.3084L59.1362 6.45102H76.3697L77.3831 0.0285645H49.3455L44.6428 29.9429H80.7442L86.1961 21.2869H96.7789L99.1623 29.9429H110.38C107.148 20.0095 103.473 9.83351 100.725 0.0285645H88.0087C82.0215 9.10563 79.7808 13.9296 73.6224 23.5776L56.4815 23.5276Z" fill="white"/>
<path d="M149.686 27.7592C149.681 27.3211 149.807 26.8916 150.047 26.5252C150.288 26.1587 150.631 25.8719 151.035 25.7009C151.438 25.53 151.883 25.4827 152.313 25.5651C152.744 25.6474 153.14 25.8557 153.452 26.1635C153.764 26.4713 153.977 26.8647 154.065 27.2939C154.153 27.7232 154.111 28.1688 153.945 28.5744C153.78 28.98 153.497 29.3273 153.134 29.5722C152.771 29.8171 152.343 29.9485 151.905 29.95C151.615 29.9547 151.326 29.9015 151.057 29.7935C150.787 29.6854 150.542 29.5247 150.335 29.3207C150.128 29.1167 149.965 28.8735 149.853 28.6054C149.742 28.3373 149.685 28.0496 149.686 27.7592ZM151.905 29.586C152.266 29.5945 152.622 29.4953 152.926 29.3009C153.231 29.1065 153.471 28.8258 153.616 28.4945C153.76 28.1633 153.803 27.7965 153.738 27.4409C153.673 27.0854 153.504 26.7572 153.252 26.4981C153 26.239 152.677 26.0609 152.323 25.9863C151.969 25.9117 151.602 25.9442 151.266 26.0795C150.931 26.2147 150.644 26.4467 150.441 26.7459C150.239 27.0451 150.129 27.3978 150.128 27.7592C150.119 27.9972 150.159 28.2345 150.245 28.4568C150.33 28.6791 150.46 28.8817 150.626 29.0525C150.792 29.2232 150.991 29.3585 151.211 29.4502C151.431 29.5419 151.667 29.5881 151.905 29.586ZM151.441 29.0294H151.063V26.5104H152.019C152.618 26.5104 152.911 26.7316 152.911 27.224C152.919 27.3143 152.908 27.4052 152.879 27.4911C152.85 27.577 152.804 27.6559 152.743 27.723C152.682 27.79 152.607 27.8437 152.525 27.8806C152.442 27.9176 152.352 27.937 152.262 27.9376L152.975 29.0508H152.547L151.883 27.959H151.441V29.0294ZM151.898 27.6022C152.226 27.6022 152.511 27.6022 152.511 27.1955C152.511 26.7887 152.226 26.8244 151.962 26.8244H151.441V27.6022H151.898Z" fill="white"/>
</g>
<defs>
<clipPath id="clip0_2_1761">
<rect width="156.251" height="30" fill="white" transform="translate(0.798828)"/>
</clipPath>
</defs>
</svg>
