<svg width="193" height="42" viewBox="0 0 193 42" fill="none" xmlns="http://www.w3.org/2000/svg">
<g clip-path="url(#clip0_2_1766)">
<path d="M0.100049 40.15L0.140049 40.18L0.190049 40.2L0.240049 40.21H38.32L38.37 40.2L38.42 40.18L38.46 40.15L38.49 40.11L38.51 40.06L38.52 40.01V1.92999L38.51 1.87999L38.49 1.82999L38.45 1.79999L38.41 1.76999L38.36 1.74999L38.31 1.73999H0.240049L0.190049 1.74999L0.140049 1.76999L0.100049 1.79999L0.0700488 1.83999L0.0500488 1.88999V1.92999V40.01L0.0600488 40.06V40.07L0.0700488 40.11L0.100049 40.15ZM2.58005 4.27999H35.97V37.67H2.58005V4.27999Z" fill="white"/>
<path d="M3.84004 36.15L3.89004 36.2399L3.96004 36.32L4.04004 36.3799L4.13004 36.4299L4.23004 36.4599L4.33004 36.4699H34.29L34.39 36.4599L34.49 36.4299L34.58 36.3799L34.66 36.32L34.72 36.2399L34.77 36.15L34.8 36.0499L34.81 35.9499V5.97995L34.8 5.87995L34.77 5.77995L34.72 5.68995L34.66 5.60995L34.58 5.53995L34.49 5.48995L34.39 5.45995L34.29 5.44995H4.32004L4.22004 5.45995L4.12004 5.48995L4.03004 5.53995L3.95004 5.61995L3.88004 5.69995L3.83004 5.78995L3.80004 5.88995L3.79004 5.98995V35.9599L3.80004 36.0599L3.84004 36.15ZM7.50004 25.97V9.48995V9.45995L7.51004 9.42995L7.52004 9.40995L7.54004 9.38995L7.56004 9.36995L7.59004 9.35995L7.61004 9.34995H7.64004H16.99H17.02L17.05 9.35995L17.07 9.36995L17.09 9.38995L17.11 9.40995L17.13 9.42995L17.14 9.45995V9.48995V12.74V12.77L17.13 12.8L17.11 12.82L17.09 12.84L17.07 12.86L17.05 12.87L17.02 12.88H11.35H11.32L11.29 12.89L11.26 12.9L11.24 12.92L11.22 12.9399L11.21 12.96L11.2 12.99V13.02V15.6899V15.72L11.21 15.75L11.22 15.7699L11.24 15.79L11.26 15.81L11.29 15.82L11.32 15.83H11.35H17H17.03L17.06 15.8399L17.08 15.85L17.1 15.87L17.12 15.8899L17.14 15.92L17.15 15.9399V15.97V19.28V19.31L17.14 19.33L17.12 19.35L17.1 19.37L17.08 19.3899L17.06 19.4L17.03 19.41H17H11.32H11.29L11.26 19.42L11.23 19.43L11.21 19.45L11.19 19.4699L11.18 19.5L11.17 19.53V19.56V22.3699V22.4L11.18 22.43L11.19 22.4499L11.21 22.4699L11.23 22.49L11.26 22.5L11.29 22.51H11.32H17.05L17.08 22.5199L17.1 22.53L17.12 22.5499L17.14 22.57L17.15 22.5899L17.16 22.6199V22.6399V26V26.0299L17.15 26.0599L17.14 26.0899L17.12 26.11L17.1 26.1299L17.08 26.1399L17.05 26.15H17.02H7.64004H7.61004L7.59004 26.1399L7.56004 26.1299L7.54004 26.11L7.52004 26.0899L7.51004 26.0599L7.50004 26.0299V25.97ZM20.79 31.3799V19.38H19.39H19.36L19.33 19.37L19.3 19.36L19.28 19.3399L19.26 19.32L19.25 19.3L19.24 19.28V19.25V15.96V15.93L19.25 15.9L19.26 15.88L19.28 15.86L19.3 15.8399L19.33 15.83L19.36 15.82H19.39H24.16H24.19L24.22 15.83L24.24 15.8399L24.26 15.86L24.28 15.88L24.29 15.9L24.3 15.93V21.57V21.5899L24.31 21.6199L24.32 21.6399L24.33 21.66L24.35 21.68L24.37 21.6899L24.39 21.6999L24.41 21.71H24.43H24.46L24.48 21.6999L24.5 21.6899L24.52 21.67L24.54 21.65L24.55 21.6299L28.4 12.66L28.41 12.64L28.43 12.62L28.45 12.6L28.47 12.59L28.5 12.58H28.53H32.24H32.26L32.29 12.59L32.31 12.6L32.33 12.62L32.35 12.64L32.36 12.66L32.37 12.68V12.7V12.72V12.74L32.36 12.76L24.42 31.42L24.41 31.4399L24.39 31.4599L24.37 31.4799L24.35 31.4899L24.32 31.5H24.29H20.92H20.89L20.86 31.4899L20.85 31.5L20.83 31.4799L20.81 31.4599L20.8 31.4399L20.79 31.41V31.3799Z" fill="white"/>
<path d="M48.13 13.9301H60.93V16.4001H51.57V19.4901H60.62V21.9201H51.57V25.2101H61.32V27.6601H48.13V13.9301Z" fill="white"/>
<path d="M62.9801 13.9301H66.1701V27.6701H62.9801V13.9301Z" fill="white"/>
<path d="M70.8801 23.2901C70.9601 23.6001 71.1301 24.2001 71.4801 24.6101C72.1601 25.4301 73.2501 25.7401 74.3001 25.7401C76.3801 25.7401 77.1401 24.7501 77.4301 24.3801L80.7601 24.7101C79.3201 27.0801 76.9101 28.0601 74.1401 28.0601C72.4701 28.0601 70.7301 27.7501 69.4301 26.6801C68.1301 25.6301 67.5801 24.0501 67.5801 22.6501C67.5801 19.0301 70.6701 17.4301 74.1801 17.4301C75.5201 17.4301 77.8001 17.7201 79.3001 19.3201C80.6001 20.7001 80.6201 22.2801 80.6401 23.2901H70.8801ZM77.1101 21.5201C77.0501 20.9601 76.7201 20.4701 76.2301 20.1901C75.7601 19.9201 74.9801 19.6801 74.1301 19.6801C73.3701 19.6801 72.5101 19.8601 71.9301 20.2501C71.3701 20.6201 71.1701 21.0501 70.9801 21.5101H77.1101V21.5201Z" fill="white"/>
<path d="M94.3901 24.61C93.0201 27.28 90.1101 28.07 88.0601 28.07C84.7901 28.07 81.7201 26.22 81.7201 22.72C81.7201 18.75 85.4601 17.41 88.2201 17.41C89.5601 17.41 91.3001 17.74 92.6001 18.66C93.3001 19.14 93.8501 19.8 94.2001 20.57L90.8501 20.96C90.5801 20.61 89.9201 19.83 88.2201 19.83C86.3501 19.83 84.9701 21.06 84.9701 22.71C84.9701 23.99 85.9001 25.63 88.1801 25.63C88.8901 25.64 89.6001 25.46 90.2201 25.1C90.8401 24.73 90.9801 24.42 91.1201 24.17L94.3901 24.61Z" fill="white"/>
<path d="M96.2801 15.1899H99.4701V17.8199H101.67V19.7299H99.4701V24.1899C99.4701 25.1399 99.8001 25.3599 100.72 25.3599C101.04 25.3599 101.37 25.3399 101.69 25.2999V27.5999C100.91 27.6799 100.13 27.7499 99.3601 27.7499C98.6801 27.7499 98.0001 27.6699 97.4501 27.3999C96.3001 26.7999 96.2801 25.7499 96.2801 25.0099V19.7299H94.6801V17.8199H96.2801V15.1899Z" fill="white"/>
<path d="M106.71 19.51C107.18 18.77 107.98 17.55 110.84 17.49V20.39C110.56 20.37 110.33 20.35 110 20.35C109.73 20.35 108.62 20.37 107.86 20.78C106.87 21.31 106.71 22.06 106.71 22.92V27.67H103.48V17.82H106.71V19.51Z" fill="white"/>
<path d="M124.71 22.59C124.71 26.17 121.67 28.08 117.98 28.08C113.95 28.08 111.21 26 111.21 22.75C111.21 19.44 114.17 17.36 118.1 17.38C122.41 17.39 124.71 19.78 124.71 22.59ZM114.53 22.79C114.53 23.34 114.75 25.71 117.99 25.71C120.64 25.71 121.4 24.02 121.4 22.66C121.4 20.91 120.04 19.62 117.8 19.74C115.47 19.85 114.53 21.27 114.53 22.79Z" fill="white"/>
<path d="M126.36 21.03H131.87V23.45H126.36V21.03Z" fill="white"/>
<path d="M131.02 13.9301H134.81L138.49 22.9401C138.66 23.3601 138.8 23.8001 138.9 24.2401C139.08 23.6201 139.12 23.4601 139.35 22.9401L143.05 13.9301H146.75L140.58 27.6701H137.23L131.02 13.9301Z" fill="white"/>
<path d="M158.87 22.59C158.87 26.17 155.83 28.08 152.14 28.08C148.11 28.08 145.37 26 145.37 22.75C145.37 19.44 148.33 17.36 152.26 17.38C156.57 17.39 158.87 19.78 158.87 22.59ZM148.69 22.79C148.69 23.34 148.91 25.71 152.15 25.71C154.8 25.71 155.55 24.02 155.55 22.66C155.55 20.91 154.19 19.62 151.95 19.74C149.62 19.85 148.69 21.27 148.69 22.79Z" fill="white"/>
<path d="M163.8 14.39V16.57H160.61V14.39H163.8ZM163.8 17.82V27.67H160.61V17.82H163.8Z" fill="white"/>
<path d="M178.18 24.61C176.82 27.28 173.9 28.07 171.85 28.07C168.58 28.07 165.51 26.22 165.51 22.72C165.51 18.75 169.24 17.41 172.01 17.41C173.35 17.41 175.09 17.74 176.39 18.66C177.09 19.14 177.64 19.8 177.99 20.57L174.64 20.96C174.37 20.61 173.71 19.83 172.01 19.83C170.14 19.83 168.76 21.06 168.76 22.71C168.76 23.99 169.69 25.63 171.97 25.63C172.69 25.64 173.39 25.46 174.01 25.1C174.63 24.73 174.77 24.42 174.9 24.17L178.18 24.61Z" fill="white"/>
<path d="M182.17 23.2901C182.25 23.6001 182.42 24.2001 182.77 24.6101C183.45 25.4301 184.54 25.7401 185.59 25.7401C187.67 25.7401 188.43 24.7501 188.72 24.3801L192.05 24.7101C190.61 27.0801 188.2 28.0601 185.43 28.0601C183.76 28.0601 182.02 27.7501 180.72 26.6801C179.42 25.6301 178.87 24.0501 178.87 22.6501C178.87 19.0301 181.96 17.4301 185.47 17.4301C186.81 17.4301 189.09 17.7201 190.59 19.3201C191.9 20.7001 191.92 22.2801 191.93 23.2901H182.17ZM188.39 21.5201C188.33 20.9601 188 20.4701 187.51 20.1901C187.04 19.9201 186.27 19.6801 185.41 19.6801C184.65 19.6801 183.79 19.8601 183.21 20.2501C182.64 20.6201 182.45 21.0501 182.26 21.5101H188.39V21.5201Z" fill="white"/>
</g>
<defs>
<clipPath id="clip0_2_1766">
<rect width="192" height="42" fill="white" transform="translate(0.0500488)"/>
</clipPath>
</defs>
</svg>
