<svg width="110" height="56" viewBox="0 0 110 56" fill="none" xmlns="http://www.w3.org/2000/svg">
<path fill-rule="evenodd" clip-rule="evenodd" d="M16.1409 2.39881V4.79763H34.6973H53.2537V2.39881V0H34.6973H16.1409V2.39881ZM78.5734 2.38261L78.5904 4.76521L84.6407 4.78175L90.691 4.79828V2.39914V0H84.6237H78.5563L78.5734 2.38261ZM16.1409 9.88701V12.3182H28.274H40.407V9.88701V7.45578H28.274H16.1409V9.88701ZM66.4249 9.88701V12.3182H78.5579H90.691V9.88701V7.45578H78.5579H66.4249V9.88701ZM16.1409 17.3749V19.774H22.2082H28.2756L28.2585 17.3914L28.2415 15.0088L22.1912 14.9923L16.1409 14.9757V17.3749ZM53.5944 15.0193C53.5316 15.0447 53.5133 15.5849 53.5133 17.413V19.774H72.1021H90.691V17.3752V14.9764L72.1832 14.9815C62.0039 14.9843 53.639 15.0013 53.5944 15.0193ZM81.4128 30.642C79.4523 30.8151 78.0706 31.273 77.3604 31.9847C76.7911 32.5553 76.5638 33.241 76.634 34.1755C76.7681 35.9618 78.01 36.8101 81.0312 37.179C81.473 37.233 82.6082 37.3217 83.5539 37.3761C85.3928 37.4821 86.3294 37.5704 86.798 37.6822C87.5329 37.8575 87.8093 38.1566 87.7553 38.718C87.6787 39.5147 86.9156 39.7767 84.4622 39.8487C81.0047 39.9501 79.345 39.4969 79.2234 38.4183L79.1899 38.1217H77.7385H76.287L76.2881 38.3972C76.29 38.8542 76.4627 39.5265 76.6883 39.9545C77.2636 41.0465 78.417 41.6596 80.5244 41.9938C81.1283 42.0895 81.6656 42.1087 83.7161 42.1077C85.9955 42.1065 86.244 42.0952 87.0073 41.9584C88.4656 41.6972 89.196 41.3798 89.853 40.7221C90.1762 40.3985 90.3168 40.1984 90.4269 39.9046C90.6321 39.357 90.7093 38.8153 90.661 38.2612C90.5089 36.5151 89.3748 35.767 86.3763 35.435C85.8767 35.3797 84.738 35.2903 83.8458 35.2363C81.3182 35.0834 80.3901 34.9607 79.919 34.7172C79.645 34.5756 79.5102 34.2782 79.5469 33.8962C79.5958 33.3883 79.8221 33.213 80.669 33.0271C81.4028 32.866 84.5904 32.8609 85.5084 33.0194C86.6969 33.2246 87.1213 33.5188 87.2806 34.2479L87.3195 34.4262H88.7457H90.1719V34.1481C90.1719 33.9952 90.1271 33.6983 90.0724 33.4884C89.6965 32.0462 88.4709 31.2001 86.1564 30.7848C85.5298 30.6724 85.0917 30.6469 83.5539 30.6329C82.5368 30.6238 81.5733 30.6278 81.4128 30.642ZM99.9043 30.6398C98.7579 30.7686 98.3788 30.8275 97.8082 30.9656C96.5279 31.2754 95.6894 31.8382 95.2848 32.6595C95.1012 33.0323 95.071 33.1667 95.0491 33.7114C94.9645 35.8166 96.1391 36.7522 99.401 37.1777C99.8027 37.2301 100.934 37.3182 101.916 37.3735C104.925 37.5433 105.585 37.6548 105.973 38.0593C106.129 38.222 106.159 38.3085 106.162 38.6037C106.168 39.2202 105.782 39.5292 104.76 39.7252C103.973 39.876 100.594 39.8767 99.6726 39.7264C98.3259 39.5066 97.7419 39.1224 97.5993 38.3626L97.554 38.1217H96.1339H94.7137V38.4493C94.7137 38.9549 94.893 39.6267 95.1395 40.0444C95.7466 41.0733 96.9184 41.6833 98.8814 41.9923C99.8267 42.1411 103.964 42.1608 104.998 42.0214C107.337 41.7059 108.592 40.9159 108.962 39.5253C109.085 39.0664 109.078 38.0355 108.95 37.6049C108.745 36.9148 108.301 36.4344 107.536 36.0753C106.644 35.6561 105.524 35.4576 103.181 35.3034C99.5248 35.0627 99.0001 35.0027 98.4582 34.7632C98.296 34.6915 98.1147 34.5586 98.0552 34.4679C97.9062 34.2406 97.9137 33.7395 98.0693 33.5251C98.2381 33.2924 98.6886 33.0827 99.1906 33.0031C99.8923 32.8918 101.882 32.8508 102.921 32.9263C104.798 33.0625 105.559 33.4078 105.661 34.1699L105.696 34.4262H107.156H108.616L108.574 34.0118C108.431 32.6178 107.565 31.6609 105.96 31.1236C104.845 30.7503 104.047 30.6517 101.981 30.632C100.963 30.6223 100.029 30.6258 99.9043 30.6398ZM0.0500488 36.3712V42.0117H1.50991H2.96976V40.2612V38.5107H6.99248H11.0152V37.2789V36.0471H6.99248H2.96976V34.6212V33.1953L7.46288 33.1786L11.956 33.162L11.9736 31.9464L11.9913 30.7308H6.02067H0.0500488V36.3712ZM16.1409 36.3712V42.0117H17.6008H19.0606V36.3712V30.7308H17.6008H16.1409V36.3712ZM23.2131 31.9626V33.1944H25.9382H28.6632V37.603V42.0117H30.1231H31.583V37.603V33.1944H34.308H37.0331V31.9626V30.7308H30.1231H23.2131V31.9626ZM41.2505 36.3712V42.0117H42.6779H44.1053V37.8246C44.1053 35.5216 44.1299 33.6471 44.1601 33.6591C44.1902 33.6709 45.9193 35.5551 48.0025 37.8462L51.7902 42.0117H53.7548H55.7193V36.3712V30.7308H54.2919H52.8644V34.9125C52.8644 37.2124 52.8404 39.0942 52.8111 39.0942C52.7817 39.0942 51.0518 37.2145 48.9668 34.9171L45.1759 30.74L43.2132 30.7354L41.2505 30.7308V36.3712ZM60.261 36.3712V42.0117H66.2317H72.2024L72.1847 40.8609L72.167 39.7101L67.6739 39.6934L63.1808 39.6768V38.5427V37.4085H67.6901H72.1994V36.3712V35.3339H67.6901H63.1808V34.1998V33.0657L67.6739 33.049L72.167 33.0323L72.1847 31.8815L72.2024 30.7308H66.2317H60.261V36.3712ZM84.5271 47.886C83.3883 48.0922 82.9628 48.2433 82.2974 48.6778C81.1314 49.4392 80.6089 51.0432 80.9292 52.8785C81.1918 54.3829 82.1205 55.3529 83.6855 55.7574C84.8871 56.0679 86.8029 56.067 87.9892 55.7551C89.0694 55.4712 89.9959 54.8006 90.3948 54.0139C90.979 52.8621 90.9742 50.874 90.3848 49.7705C90.1084 49.2534 89.5063 48.6861 88.9391 48.4087C88.0759 47.9865 87.5991 47.8986 86.0519 47.8763C85.3025 47.8654 84.6163 47.8698 84.5271 47.886ZM19.4424 49.4512C19.0055 50.2982 18.0839 52.0833 17.3944 53.4182C16.705 54.7532 16.1409 55.8545 16.1409 55.8657C16.1409 55.8768 16.6446 55.8856 17.2601 55.8852L18.3794 55.8845L20.0014 52.6805L21.6235 49.4766L23.2295 52.6812L24.8354 55.8859H25.9761H27.1168L26.4896 54.6703C26.1446 54.0017 25.2166 52.2075 24.4272 50.6831L22.992 47.9115H21.6144H20.2369L19.4424 49.4512ZM34.3729 50.3323C34.3729 52.5309 34.3847 52.7991 34.5011 53.2539C34.9349 54.9486 36.1236 55.7569 38.4842 55.9621C39.9696 56.0914 41.5008 55.8844 42.47 55.4235C43.0243 55.1599 43.6889 54.5098 43.9318 53.9936C44.2988 53.2134 44.3266 52.959 44.3296 50.3427L44.3324 47.9439L43.3135 47.926L42.2946 47.9082L42.2753 50.2924C42.2566 52.6232 42.2528 52.6839 42.1068 53.0008C41.6759 53.9364 40.7349 54.3193 39.0472 54.2459C37.6434 54.1848 36.9514 53.8376 36.566 53.0008C36.4202 52.6841 36.4163 52.6217 36.3962 50.2941L36.3756 47.9115H35.3743H34.3729V50.3323ZM52.7347 51.8987V55.8859H55.8109C59.2811 55.8859 59.566 55.8591 60.3908 55.4543C61.3222 54.9972 62.0127 54.0809 62.2397 53.0008C62.3609 52.4238 62.3621 51.3783 62.2423 50.813C62.1283 50.2757 61.8335 49.6453 61.4976 49.2206C61.2046 48.8502 60.5178 48.3762 59.9961 48.1843C59.3593 47.95 58.7491 47.9115 55.6822 47.9115H52.7347V51.8987ZM70.6206 47.9547C70.5968 47.9784 70.5774 49.7727 70.5774 51.9419V55.8859H71.6155H72.6536V51.8987V47.9115H71.6588C71.1115 47.9115 70.6444 47.9309 70.6206 47.9547ZM86.7842 49.5994C87.774 49.7599 88.4138 50.2044 88.6528 50.8975C88.8179 51.3765 88.821 52.4123 88.6586 52.8823C88.3114 53.8874 87.3318 54.3169 85.5403 54.2493C84.8488 54.2233 84.6085 54.1872 84.258 54.0572C83.3152 53.7071 82.9051 53.0554 82.9051 51.9074C82.9051 50.2781 83.784 49.557 85.7923 49.5386C86.1135 49.5357 86.5598 49.563 86.7842 49.5994ZM59.1682 49.8448C59.6571 50.0394 60.023 50.437 60.1736 50.9374C60.3438 51.5028 60.3243 52.4966 60.1333 52.9918C59.9543 53.456 59.5903 53.8267 59.1719 53.9709C58.7122 54.1292 57.5932 54.2081 56.1086 54.1868L54.7785 54.1678L54.7614 51.91L54.7443 49.6522L56.7728 49.6754C58.6961 49.6975 58.8202 49.7062 59.1682 49.8448Z" fill="white"/>
</svg>
