<svg width="184" height="35" viewBox="0 0 184 35" fill="none" xmlns="http://www.w3.org/2000/svg">
<path d="M65.5446 2.88199L74.7056 2.85913L67.4034 34.6642L58.3395 34.602L65.5446 2.88199Z" fill="black"/>
<path d="M50.9535 2.85497L60.03 2.86163L52.7341 34.6667L43.6192 34.6474L50.9535 2.85497Z" fill="black"/>
<path d="M119.318 2.863L145.841 2.87602L145.045 6.28714L122.93 6.27951L120.374 17.1452L138.581 17.1744L137.773 20.5217L119.634 20.5103L117.138 31.1909L139.924 31.2205L139.157 34.6224L112.037 34.5871L119.318 2.863Z" fill="black"/>
<path d="M77.1443 2.84275L84.8015 2.81132L91.8577 26.7745C92.4116 25.7958 93.1904 24.8805 93.8631 23.9767C95.0421 22.392 96.2218 20.8078 97.3961 19.2196C101.441 13.7504 105.482 8.27862 109.553 2.82942L116.955 2.83767L113.39 7.58084L93.1704 34.6805L86.9564 34.6821L77.1443 2.84275Z" fill="black"/>
<path fill-rule="evenodd" clip-rule="evenodd" d="M156.76 2.79642C154.299 2.77957 151.833 2.7627 149.38 2.83399L142.104 34.5743L144.617 34.6172L147.524 21.8337L157.883 21.8295L164.357 32.3975L165.727 34.6051L168.976 34.6146L161.058 21.8467C165.234 21.528 168.789 19.7997 171.538 16.5845C173.168 14.6794 174.192 12.3305 173.959 9.77907C173.78 7.81463 172.825 6.17748 171.303 4.94383C170.128 3.99176 168.618 3.28859 167.137 2.99113C165.505 2.66356 163.639 2.7194 161.861 2.77264C161.21 2.79211 160.572 2.81122 159.96 2.81113C158.895 2.81104 157.828 2.80373 156.76 2.79642ZM161.148 5.09503C157.891 5.09217 154.633 5.09058 151.376 5.08995L148.071 19.5706C151.266 19.5722 154.461 19.5728 157.656 19.5693C158.109 19.5688 158.572 19.5785 159.04 19.5884C160.507 19.6194 162.024 19.6514 163.417 19.3703C164.555 19.1407 165.67 18.6045 166.659 18.0084C169.013 16.3706 170.818 14.6277 171.345 11.7096C171.573 10.448 171.176 8.92836 170.44 7.88709C169.361 6.36043 167.668 5.41852 165.829 5.15756C164.774 5.0076 163.624 5.03932 162.505 5.07015C162.045 5.08285 161.589 5.0954 161.148 5.09503Z" fill="black"/>
<path d="M7.36432 2.84734L21.7878 2.86639C21.0307 6.30131 20.4713 10.0912 18.4967 13.074C17.5405 14.5188 16.3656 15.6235 15.064 16.7442C16.5662 16.1588 18.0519 15.4867 19.5323 14.8458C21.1348 14.1518 22.8323 13.4388 24.2935 12.4804C27.5688 10.3324 30.1386 6.71687 30.9319 2.86417L45.385 2.86544L38.0986 34.7321L23.6418 34.7258C24.0919 32.8534 24.5265 30.9791 24.944 29.0994C25.3313 27.355 25.6732 25.6042 26.4554 23.9835C27.5402 21.7356 29.1389 19.9896 31.0481 18.4162L23.1421 21.9886C18.6802 24.448 15.7805 30.0185 14.4526 34.728L0.0268555 34.7096L7.36432 2.84734Z" fill="black"/>
<path d="M180.066 7.9999C178.032 7.9999 176.501 6.43875 176.501 4.50494C176.501 2.56105 178.032 0.999902 180.066 0.999902C182.111 0.999902 183.642 2.56105 183.642 4.50494C183.642 6.43875 182.111 7.9999 180.066 7.9999ZM180.066 7.27472C181.698 7.27472 182.816 6.04595 182.816 4.50494C182.816 2.95386 181.698 1.73515 180.066 1.73515C178.455 1.73515 177.327 2.95386 177.327 4.50494C177.327 6.04595 178.455 7.27472 180.066 7.27472ZM180.68 6.2776L179.925 5.06897H179.532V6.2776H178.696V2.73228H180.116C181.033 2.73228 181.577 3.14523 181.577 3.90062C181.577 4.40422 181.255 4.76681 180.801 4.92796L181.708 6.2776H180.68ZM180.076 3.42724H179.532V4.36393H180.076C180.529 4.36393 180.741 4.19271 180.741 3.90062C180.741 3.61861 180.529 3.42724 180.076 3.42724Z" fill="black"/>
<path fill-rule="evenodd" clip-rule="evenodd" d="M180.625 6.3776L179.87 5.16897H179.632V6.3776H178.596V2.63228H180.116C180.588 2.63228 180.978 2.73828 181.252 2.95467C181.53 3.17379 181.677 3.49659 181.677 3.90062C181.677 4.40883 181.376 4.78304 180.953 4.97455L181.895 6.3776H180.625ZM180.801 4.92796C180.834 4.91643 180.866 4.90388 180.897 4.89031C181.299 4.71422 181.577 4.3682 181.577 3.90062C181.577 3.14523 181.033 2.73228 180.116 2.73228H178.696V6.2776H179.532V5.06897H179.925L180.68 6.2776H181.708L180.801 4.92796ZM180.066 8.0999C177.977 8.0999 176.401 6.49473 176.401 4.50494C176.401 2.50527 177.977 0.899902 180.066 0.899902C182.165 0.899902 183.742 2.50508 183.742 4.50494C183.742 6.49491 182.165 8.0999 180.066 8.0999ZM180.066 7.17472C181.639 7.17472 182.716 5.99388 182.716 4.50494C182.716 3.00616 181.64 1.83515 180.066 1.83515C178.513 1.83515 177.427 3.00616 177.427 4.50494C177.427 5.99388 178.513 7.17472 180.066 7.17472ZM179.532 3.42724H180.076C180.529 3.42724 180.741 3.61861 180.741 3.90062C180.741 4.19271 180.529 4.36393 180.076 4.36393H179.532V3.42724ZM179.632 4.26393H180.076C180.293 4.26393 180.435 4.22255 180.52 4.16081C180.6 4.10301 180.641 4.0195 180.641 3.90062C180.641 3.78727 180.6 3.69994 180.518 3.63784C180.432 3.57281 180.291 3.52724 180.076 3.52724H179.632V4.26393ZM176.501 4.50494C176.501 6.43875 178.032 7.9999 180.066 7.9999C182.111 7.9999 183.642 6.43875 183.642 4.50494C183.642 2.56105 182.111 0.999902 180.066 0.999902C178.032 0.999902 176.501 2.56105 176.501 4.50494ZM182.816 4.50494C182.816 6.04595 181.698 7.27472 180.066 7.27472C178.455 7.27472 177.327 6.04595 177.327 4.50494C177.327 2.95386 178.455 1.73515 180.066 1.73515C181.698 1.73515 182.816 2.95386 182.816 4.50494Z" fill="black"/>
</svg>
