<svg width="159" height="32" viewBox="0 0 159 32" fill="none" xmlns="http://www.w3.org/2000/svg">
<path d="M151.979 0.5H113.167C112.355 0.5 111.645 0.601455 111.014 0.793091C110.394 0.973455 109.841 1.23273 109.345 1.54836C108.849 1.87527 108.421 2.25855 108.049 2.68691C107.666 3.11527 107.339 3.6 107.046 4.11855C106.753 4.63709 106.505 5.20073 106.291 5.79818C106.076 6.39564 105.896 7.02691 105.749 7.692C105.603 8.35709 105.479 9.04473 105.389 9.76618C105.299 10.4876 105.231 11.2316 105.186 11.9982C105.141 12.7647 105.118 13.5538 105.118 14.3655C105.118 15.1771 105.141 15.9662 105.186 16.7327C105.231 17.4993 105.299 18.2433 105.389 18.9647C105.479 19.6862 105.603 20.3738 105.749 21.0389C105.896 21.704 106.076 22.3353 106.291 22.9327C106.505 23.5302 106.753 24.0938 107.046 24.6124C107.339 25.1309 107.666 25.6156 108.049 26.044C108.432 26.4724 108.861 26.8556 109.345 27.1825C109.841 27.4982 110.394 27.7687 111.014 27.9491C111.645 28.1295 112.355 28.2422 113.167 28.2422H151.979C152.464 28.2422 152.847 27.8589 152.847 27.3742V23.5527C152.847 23.3225 152.755 23.1017 152.593 22.939C152.43 22.7762 152.209 22.6847 151.979 22.6847H118.093C117.863 22.6847 117.642 22.5933 117.479 22.4305C117.317 22.2677 117.225 22.0469 117.225 21.8167V6.92546C117.225 6.44073 117.608 6.05746 118.093 6.05746H151.979C152.464 6.05746 152.847 5.67418 152.847 5.18946V1.368C152.847 1.13779 152.755 0.917013 152.593 0.754231C152.43 0.59145 152.209 0.5 151.979 0.5ZM101.635 16.5411C101.522 16.0338 101.376 15.5716 101.195 15.132C101.025 14.7058 100.806 14.301 100.541 13.9258C100.293 13.5651 100 13.2269 99.6735 12.9451C99.3465 12.652 98.9745 12.404 98.5575 12.2011C98.1169 11.9884 97.6509 11.8331 97.1709 11.7389C96.6524 11.6262 96.1 11.5698 95.48 11.5698H67.704C67.4738 11.5698 67.253 11.4784 67.0902 11.3156C66.9275 11.1528 66.836 10.932 66.836 10.7018V7.00436C66.836 6.51964 67.2193 6.13636 67.704 6.13636H100.463C101.06 6.13636 101.545 5.65164 101.545 5.05418V1.58218C101.545 1.29517 101.431 1.01991 101.228 0.816964C101.025 0.614015 100.75 0.5 100.463 0.5L60.3316 0.5C59.7116 0.5 59.148 0.556364 58.6407 0.657818C58.1335 0.770545 57.6713 0.917091 57.2542 1.12C56.8371 1.32291 56.4651 1.57091 56.1382 1.864C55.8113 2.15709 55.5182 2.484 55.2702 2.84473C55.0222 3.21673 54.808 3.61127 54.6164 4.05091C54.436 4.49055 54.2895 4.964 54.1767 5.46C54.064 5.96727 53.9738 6.49709 53.9175 7.06073C53.8611 7.62436 53.8385 8.22182 53.8385 8.83055C53.8385 9.45055 53.8611 10.0367 53.9175 10.6004C53.9738 11.164 54.0527 11.6938 54.1767 12.2011C54.2895 12.7084 54.436 13.1705 54.6164 13.6102C54.7967 14.0498 55.0109 14.4556 55.2702 14.8164C55.5182 15.1771 55.8113 15.5153 56.1382 15.7971C56.4651 16.0902 56.8371 16.3382 57.2542 16.5298C57.6713 16.7327 58.1335 16.8905 58.6407 16.992C59.148 17.0935 59.7116 17.1611 60.3316 17.1611H88.0964C88.5811 17.1611 88.9644 17.5444 88.9644 18.0291V21.9295C88.9644 22.4142 88.5811 22.7975 88.0964 22.7975H55.3378C55.0508 22.7975 54.7756 22.9115 54.5726 23.1144C54.3697 23.3174 54.2556 23.5926 54.2556 23.8796V27.1375C54.2556 27.7349 54.7404 28.2196 55.3378 28.2196H95.4687C96.0887 28.2196 96.6524 28.1633 97.1596 28.0618C97.6669 27.9491 98.1291 27.8025 98.5462 27.5996C98.9633 27.3967 99.3353 27.1487 99.6622 26.8556C99.9891 26.5625 100.282 26.2356 100.53 25.8749C100.778 25.5029 101.004 25.1084 101.184 24.6687C101.364 24.2291 101.511 23.7556 101.624 23.2596C101.736 22.7524 101.827 22.2225 101.883 21.6589C101.939 21.0953 101.962 20.4978 101.962 19.8891C101.962 19.2691 101.939 18.6829 101.883 18.1193C101.838 17.5782 101.748 17.0371 101.635 16.5411ZM49.6902 3.00255C49.476 2.65309 49.2167 2.34873 48.9124 2.07818C48.606 1.80735 48.2693 1.57283 47.9091 1.37927C47.5371 1.18764 47.1313 1.01855 46.6916 0.894545C46.252 0.759273 45.7785 0.669091 45.2825 0.601455C44.7753 0.533818 44.2342 0.5 43.6705 0.5H7.688C7.21455 0.5 6.51564 0.612727 5.89564 0.804364C5.27564 0.996 4.73455 1.26655 4.24982 1.59345C3.76509 1.92036 3.33673 2.31491 2.96473 2.74327C2.59273 3.18291 2.25455 3.65636 1.97273 4.18618C1.67964 4.70473 1.43164 5.26836 1.20618 5.85455C0.992 6.452 0.811636 7.08327 0.653818 7.73709C0.507273 8.40218 0.383273 9.08982 0.281818 9.8C0.180364 10.5102 0.112727 11.2542 0.0676364 12.0207C0.0225455 12.7873 0 13.5764 0 14.388C0 14.388 0.0225455 15.9887 0.0676364 16.7553C0.112727 17.5218 0.180364 18.2658 0.281818 18.976C0.383273 19.6862 0.507273 20.3738 0.653818 21.0389C0.811636 21.6927 0.992 22.324 1.20618 22.9215C1.42036 23.5189 1.66836 24.0825 1.96145 24.6011C2.25455 25.1084 2.59273 25.5931 2.96473 26.0327C3.33673 26.4611 3.76509 26.8556 4.24982 27.1825C4.73455 27.5095 5.27564 27.78 5.89564 27.9716C6.51564 28.1633 7.21455 28.276 8.09382 28.276H29.7149V31.0604C29.7149 31.5451 30.0982 31.5 30.0982 31.5H38.8909C38.8909 31.5 39.2967 31.5338 39.2967 31.0716V28.276H44.0651C44.4371 28.276 44.9669 28.2196 45.26 28.1745C45.7673 28.1069 46.2295 28.0167 46.6691 27.8815C47.1087 27.7575 47.5145 27.5884 47.8865 27.3967C48.2585 27.1938 48.5967 26.9684 48.8898 26.6978C49.1829 26.4273 49.4535 26.1229 49.6676 25.7735C49.8818 25.424 50.0622 25.0295 50.1862 24.5785C50.3102 24.1276 50.3778 23.6316 50.3778 23.068V5.708C50.3778 5.14436 50.3102 4.63709 50.1862 4.19745C50.0735 3.74655 49.9044 3.352 49.6902 3.00255ZM43.1182 21.1516C43.1182 21.9182 42.4982 22.5495 41.7204 22.5495H39.1953V19.6411C39.1953 19.3255 38.8458 19.2916 38.8458 19.2916H29.9516C29.6022 19.2916 29.5909 19.6749 29.5909 19.6749V22.5495H13.2455C12.4789 22.5495 11.8476 21.9295 11.8476 21.1516V7.21855C11.8476 6.452 12.4676 5.82073 13.2455 5.82073H41.7204C42.4869 5.82073 43.1182 6.44073 43.1182 7.21855V21.1516ZM157.052 2.856C157.212 2.7837 157.34 2.65543 157.412 2.49527C157.446 2.40509 157.469 2.30364 157.469 2.19091C157.469 1.95418 157.401 1.77382 157.266 1.64982C157.131 1.52582 156.905 1.45818 156.612 1.45818H155.597V4.10727H155.924V2.93491H156.465L157.209 4.10727H157.593L156.804 2.93491C156.894 2.91236 156.973 2.88982 157.052 2.856ZM156.341 2.65309H155.913V1.74H156.511C156.589 1.74 156.668 1.75127 156.747 1.76255C156.826 1.77382 156.883 1.79636 156.95 1.83018C157.007 1.864 157.052 1.90909 157.097 1.96545C157.131 2.02182 157.153 2.10073 157.153 2.19091C157.153 2.30364 157.131 2.39382 157.085 2.45018C157.04 2.51782 156.984 2.56291 156.905 2.58545C156.826 2.61927 156.747 2.63055 156.646 2.64182C156.544 2.65309 156.443 2.65309 156.341 2.65309ZM158.63 1.88655C158.517 1.60473 158.348 1.368 158.145 1.15382C157.942 0.950909 157.694 0.781818 157.424 0.669091C157.142 0.556364 156.849 0.5 156.522 0.5C156.195 0.5 155.902 0.556364 155.62 0.669091C155.338 0.781818 155.101 0.950909 154.899 1.15382C154.696 1.35673 154.538 1.60473 154.414 1.88655C154.301 2.16836 154.233 2.46145 154.233 2.78836C154.233 3.11527 154.29 3.40836 154.414 3.69018C154.527 3.972 154.696 4.20873 154.899 4.41164C155.101 4.61455 155.349 4.77236 155.62 4.89636C155.902 5.00909 156.195 5.07673 156.522 5.07673C156.849 5.07673 157.142 5.02036 157.424 4.89636C157.705 4.78364 157.942 4.61455 158.145 4.41164C158.348 4.20873 158.506 3.972 158.63 3.69018C158.743 3.41964 158.799 3.11527 158.799 2.78836C158.799 2.46145 158.743 2.16836 158.63 1.88655ZM158.303 3.55491C158.201 3.79164 158.066 3.99455 157.897 4.17491C157.728 4.35527 157.525 4.49055 157.288 4.592C157.052 4.69346 156.804 4.74982 156.522 4.74982C156.24 4.74982 155.992 4.69346 155.755 4.592C155.519 4.49055 155.316 4.35527 155.147 4.17491C154.976 3.99383 154.838 3.78392 154.741 3.55491C154.639 3.31818 154.594 3.05891 154.594 2.78836C154.594 2.51782 154.639 2.25855 154.741 2.02182C154.884 1.66703 155.13 1.36338 155.447 1.1503C155.765 0.93722 156.139 0.824546 156.522 0.826909C156.778 0.827454 157.031 0.878522 157.267 0.977182C157.503 1.07584 157.717 1.22015 157.897 1.40182C158.066 1.58218 158.201 1.78509 158.303 2.02182C158.404 2.25855 158.449 2.51782 158.449 2.78836C158.449 3.05891 158.393 3.31818 158.303 3.55491Z" fill="white"/>
</svg>
