<svg width="1440" height="429" viewBox="0 0 1440 429" fill="none" xmlns="http://www.w3.org/2000/svg">
<g clip-path="url(#clip0_137_433)">
<path d="M212.308 421.529H76.4527L0 4.80005H178.514C220.493 4.80005 253.948 10.0058 281.492 21.7018C335.291 44.2487 364.602 84.7791 374.35 138.02C383.69 188.961 370.002 220.804 340.624 241.053C371.191 255.52 390.822 282.732 399.177 328.435L411.812 397.326C413.491 407.064 418.896 415.775 426.892 421.631H287.402C279.557 417.574 274.428 408.887 271.881 395.027L260.842 334.654C254.899 302.237 242.094 293.549 212.512 293.549H188.737L212.308 421.529ZM167.68 177.874H206.67C232.686 177.874 239.615 163.981 236.524 147.18C233.128 129.231 221.071 117.67 195.768 117.67H156.641L167.68 177.874Z" fill="black"/>
<path d="M445.232 421.529L368.848 4.80005H675.066L696.056 119.394H525.829L531.976 152.961H696.905L717.996 268.163H553.068L559.113 301.155H731.14L753.217 421.529H445.232Z" fill="black"/>
<path d="M766.428 53.2065L792.275 190.685H832.59L840.911 234.934H800.596L835.647 421.428H775.157L696.599 3.58301H807.796L817.136 53.2065H766.428Z" fill="black"/>
<path d="M962.196 425.011C954.14 424.952 946.134 423.745 938.421 421.428C921.226 416.406 906.504 405.233 897.088 390.058C891.612 381.176 887.899 371.33 886.151 361.055L818.801 3.58301H879.29L944.807 352.097C945.742 358.27 947.489 364.293 950.003 370.013C950.63 371.561 951.695 372.893 953.071 373.848C954.446 374.802 956.071 375.337 957.747 375.388H959.581C962.842 375.388 964.642 373.596 964.981 370.013C965.101 363.989 964.485 357.973 963.147 352.097L897.631 3.58301H958.121L1025.34 361.055C1027.42 370.611 1027.42 380.502 1025.34 390.058C1023.6 397.501 1020 404.386 1014.87 410.07C1009.88 415.307 1003.64 419.213 996.737 421.428C989.341 423.848 981.598 425.058 973.812 425.011H962.196Z" fill="black"/>
<path d="M1083.18 171.552L1064.53 72.3393C1063.66 66.2482 1061.93 60.3088 1059.4 54.6939C1058.74 53.2082 1057.67 51.9414 1056.31 51.043C1054.95 50.1446 1053.36 49.652 1051.73 49.6233H1050.5C1049.79 49.5682 1049.07 49.6567 1048.39 49.8835C1047.71 50.1103 1047.08 50.4707 1046.54 50.9435C1046 51.4164 1045.56 51.9919 1045.25 52.6361C1044.94 53.2803 1044.76 53.98 1044.73 54.6939C1044.33 60.8126 1044.87 66.956 1046.33 72.9139L1054.65 117.163C1056.82 129.72 1061.06 141.836 1067.18 153.028C1072.94 163.308 1079.67 173.02 1087.29 182.032C1094.89 191.046 1102.82 199.508 1111.06 207.418C1119.31 215.396 1127.19 223.88 1134.83 232.838C1142.41 241.935 1149.09 251.738 1154.77 262.112C1160.88 273.426 1165.13 285.636 1167.37 298.282L1179.16 361.055C1181.25 370.601 1181.35 380.475 1179.43 390.058C1177.88 397.512 1174.37 404.421 1169.24 410.07C1164.17 415.309 1157.86 419.212 1150.9 421.428C1143.42 423.851 1135.6 425.061 1127.74 425.011H1117.41C1109.12 424.995 1100.87 423.788 1092.92 421.428C1084.68 418.997 1076.92 415.154 1070 410.07C1054.05 398.166 1043.32 380.618 1040.01 361.055L1019.63 252.884H1074.65L1093.3 352.131C1094.11 358.495 1096.3 364.608 1099.72 370.047C1100.76 371.648 1102.17 372.974 1103.84 373.91C1105.51 374.846 1107.38 375.365 1109.29 375.421H1110.62C1112.27 375.52 1113.9 375.034 1115.22 374.05C1116.55 373.067 1117.48 371.648 1117.85 370.047C1118.98 364.101 1118.76 357.98 1117.21 352.131L1108.78 307.273C1106.58 294.723 1102.35 282.611 1096.25 271.408C1090.53 261.213 1083.81 251.611 1076.18 242.743C1068.64 233.954 1060.71 225.582 1052.4 217.627C1044.09 209.672 1036.17 201.198 1028.63 192.206C1021.09 183.187 1014.42 173.476 1008.73 163.203C1002.56 151.802 998.283 139.486 996.058 126.729L984.273 63.956C982.152 54.4148 982.152 44.5276 984.273 34.9864C986.041 27.4619 989.793 20.5426 995.141 14.941C1000.28 9.77649 1006.56 5.88582 1013.48 3.583C1020.83 1.15189 1028.53 -0.0586913 1036.27 -0.000172954H1042.39C1050.55 0.0111707 1058.66 1.21851 1066.47 3.583C1074.52 6.02109 1082.08 9.86708 1088.78 14.941C1095.98 20.4912 1102.12 27.2802 1106.92 34.9864C1112.38 43.861 1116.1 53.694 1117.85 63.956L1138.06 171.552H1083.18Z" fill="black"/>
<path d="M1196.58 53.2065L1222.43 190.685H1262.74L1271.06 234.934H1230.75L1256.46 371.804H1312.09L1321.4 421.428H1205.31L1126.75 3.58301H1237.98L1247.29 53.2065H1196.58Z" fill="black"/>
<path d="M1378.42 109.726C1384.33 141.197 1389.09 169.727 1392.01 197.108C1399.41 252.478 1401.52 292.096 1400.6 303.149C1391.45 301.289 1382.12 300.506 1372.79 300.817C1360.86 300.817 1350.84 301.425 1345.82 303.149C1343.03 297.91 1339.03 285.673 1333.08 267.047C1321.67 228.579 1306.79 171.485 1295.18 109.726L1275.55 6.01685H1358.93L1378.42 109.726ZM1333.49 377.72C1326.29 339.285 1341.84 327.015 1376.39 327.015C1411.5 327.015 1431.1 339.252 1438.3 377.72C1445.09 414.43 1430.69 429 1395.54 429C1357.43 429 1340.72 416.188 1333.49 377.72Z" fill="black"/>
</g>
<defs>
<clipPath id="clip0_137_433">
<rect width="1440" height="429" fill="white"/>
</clipPath>
</defs>
</svg>
