<svg width="176" height="32" viewBox="0 0 176 32" fill="none" xmlns="http://www.w3.org/2000/svg">
<path d="M87.4974 0.711304L85.22 19.234H81.7172L84.0287 0.711304H70.7764L69.1633 13.5217C68.9856 15.2801 68.658 18.4166 69.3549 20.6045C70.9046 25.5086 75.0161 27.2654 75.0161 27.2654L75.4966 27.5265C77.2179 28.4057 79.1925 28.69 80.9756 28.69H82.2116C85.4981 28.6807 88.1773 27.9561 90.3651 26.8606C90.3698 26.8482 90.498 26.805 90.498 26.805C91.2119 26.3801 95.2647 24.2849 97.7863 19.3282C98.7226 17.4571 98.7983 17.06 99.3221 14.0347L100.944 0.711304" fill="white"/>
<path d="M46.8366 27.5358L47.9909 18.1323H51.9942L52.0684 18.0906L50.9065 27.5358H63.9069L67.2011 0.709717H54.1991L53.0603 10.005L53.0371 9.99424H49.0168L48.9797 10.005L50.1123 0.709717H37.1087L33.8315 27.5358H46.8366Z" fill="white"/>
<path d="M172.727 1.87473V2.80951H173.184C173.676 2.80951 173.9 2.69672 173.9 2.35989C173.9 2.00915 173.676 1.87473 173.169 1.87473H172.727ZM174.454 2.30581C174.454 2.70908 174.212 2.9872 173.801 3.07064L174.436 4.37006H173.833L173.26 3.14943H172.727V4.37006H172.194V1.5178H173.26C174.057 1.5178 174.454 1.78975 174.454 2.30581ZM174.754 1.46063C174.337 1.03882 173.801 0.810151 173.207 0.810151C172.617 0.810151 172.087 1.03574 171.689 1.43746C171.267 1.86855 171.026 2.42014 171.026 2.99338C171.026 3.56043 171.256 4.10276 171.67 4.51685C172.078 4.93557 172.623 5.16734 173.184 5.16734C173.771 5.16734 174.308 4.94175 174.748 4.52303C175.157 4.12749 175.374 3.59596 175.374 3.01346C175.374 2.40624 175.162 1.86854 174.754 1.46063ZM174.986 1.2366C175.446 1.70168 175.707 2.32744 175.707 2.99338C175.707 3.6794 175.457 4.30053 174.981 4.75325C174.482 5.23378 173.853 5.50108 173.203 5.50108C172.528 5.50108 171.91 5.23377 171.432 4.74398C170.958 4.265 170.698 3.65314 170.698 2.99338C170.698 2.33053 170.975 1.69241 171.458 1.19179C171.919 0.729807 172.517 0.484131 173.203 0.484131C173.873 0.484131 174.501 0.746804 174.986 1.2366Z" fill="white"/>
<path d="M165.159 20.4824L149.422 20.47L149.907 16.9132H165.602L166.44 10.0746L150.843 10.0869L151.284 6.86541H166.832L167.588 0.705078H138.727L136.268 20.7188L126.395 15.6864C126.395 15.6864 129.121 14.9076 130.61 13.8709C132.163 12.7816 132.817 11.7016 133.11 11.1979C133.659 10.2723 134.255 9.19697 134.322 7.17443C134.396 5.09318 133.299 3.59906 132.713 2.91613C132.121 2.20847 130.672 0.678815 128.118 0.711262H104.5L103.739 6.77115H122.438L121.992 10.0437H103.352L101.199 27.5342H112.551L113.656 18.653L134.975 31.516L135.448 27.5404H164.295L165.159 20.4824Z" fill="white"/>
<path d="M10.7259 0.706665C8.99074 0.712845 7.45183 1.30925 6.2173 2.27803L6.15857 2.28884C6.14312 2.28884 6.14314 2.27803 6.14314 2.27803V2.28884C2.20158 5.3636 1.34714 12.1018 6.94039 14.8706C7.68823 15.2291 20.0506 20.246 20.0506 20.246L20.0738 20.2615L1.64223 20.2646L0.746094 27.5543L23.3818 27.5451C26.8274 27.5482 29.2022 26.241 30.8447 23.9172C31.4364 23.123 31.8351 22.3334 32.1008 21.5285C32.9599 18.9991 32.793 16.1237 31.0857 14.7377C30.7164 14.455 30.4012 14.1938 30.0628 13.9945C29.8311 13.857 29.4448 13.616 29.1141 13.4538C26.1753 12.0663 13.6122 6.74955 13.6122 6.74955L33.0434 6.74028L33.7896 0.712837L10.7259 0.706665Z" fill="white"/>
</svg>
