<svg width="176" height="36" viewBox="0 0 176 36" fill="none" xmlns="http://www.w3.org/2000/svg">
<path d="M95.2828 20.2693L75.5068 1.83606V33.0898H81.3653V15.6356L101.141 34.046V2.7104H95.2828V20.2693Z" fill="white"/>
<path d="M49.8231 1.53479C46.5781 1.53414 43.4058 2.4958 40.7074 4.29815C38.009 6.1005 35.9056 8.66258 34.6634 11.6604C33.4211 14.6582 33.0958 17.957 33.7284 21.1397C34.3611 24.3224 35.9234 27.2461 38.2177 29.5409C40.512 31.8356 43.4353 33.3985 46.6179 34.0318C49.8005 34.6651 53.0994 34.3404 56.0975 33.0988C59.0955 31.8571 61.658 29.7543 63.4609 27.0562C65.2638 24.3581 66.2261 21.186 66.2261 17.941C66.2217 13.5917 64.4923 9.42175 61.4172 6.34601C58.3421 3.27028 54.1724 1.53999 49.8231 1.53479ZM49.8231 28.4496C47.7404 28.4703 45.6985 27.8717 43.9566 26.7297C42.2148 25.5877 40.8516 23.9539 40.0401 22.0356C39.2287 20.1174 39.0055 18.0012 39.3991 15.9559C39.7927 13.9106 40.7851 12.0284 42.2505 10.5482C43.7159 9.06811 45.5881 8.05681 47.6294 7.64277C49.6706 7.22873 51.7889 7.43062 53.7152 8.22282C55.6415 9.01501 57.2889 10.3618 58.4483 12.0921C59.6077 13.8224 60.2267 15.8582 60.2268 17.941C60.2347 20.7124 59.1445 23.3739 57.1947 25.3434C55.2449 27.3128 52.5944 28.4296 49.8231 28.4496Z" fill="white"/>
<path d="M23.4422 18.2129C21.8834 17.0242 19.84 16.0647 16.7847 15.0954C10.8346 13.2091 10.8346 11.7093 10.8346 10.9791C10.8346 9.28932 12.7208 7.54063 15.8743 7.54063C17.8554 7.58654 19.7729 8.24935 21.3594 9.43669L21.7688 9.74451L26.4942 6.55167L25.9768 5.9393C24.6858 4.55364 23.1236 3.4482 21.3874 2.69164C19.6512 1.93508 17.778 1.54356 15.8841 1.54138C12.8452 1.54138 10.0519 2.52379 8.02486 4.27576C7.04462 5.10009 6.25244 6.12494 5.70168 7.28125C5.15092 8.43756 4.85438 9.69848 4.83203 10.9791C4.83203 13.6709 6.00765 15.9337 8.32614 17.702C9.88489 18.8907 11.9283 19.8502 14.9836 20.8195C20.9239 22.709 20.9239 24.2056 20.9239 24.9227C20.9239 26.6125 19.0377 28.3612 15.8841 28.3612C13.9027 28.317 11.9848 27.654 10.399 26.4651L9.98969 26.1573L5.26757 29.3632L5.78169 29.9723C7.0727 31.3616 8.63589 32.4702 10.3739 33.229C12.112 33.9879 13.9877 34.3809 15.8841 34.3834C18.9231 34.3834 21.7164 33.4009 23.7434 31.649C24.7241 30.8226 25.5161 29.7954 26.0657 28.6367C26.6154 27.478 26.91 26.2149 26.9297 24.9326C26.9363 22.244 25.7606 19.9812 23.4422 18.2129Z" fill="white"/>
<path d="M126.821 1.65594C123.576 1.65594 120.404 2.61824 117.706 4.42112C115.008 6.22401 112.905 8.78651 111.664 11.7846C110.422 14.7826 110.097 18.0815 110.731 21.2641C111.364 24.4467 112.927 27.37 115.221 29.6643C117.516 31.9586 120.44 33.5209 123.623 34.1536C126.805 34.7863 130.104 34.4609 133.102 33.2187C136.1 31.9764 138.662 29.8731 140.464 27.1746C142.267 24.4762 143.228 21.3039 143.228 18.0589C143.223 13.7093 141.493 9.53921 138.417 6.4639C135.341 3.38859 131.171 1.65941 126.821 1.65594ZM126.821 28.5674C124.739 28.5856 122.698 27.9848 120.958 26.8412C119.218 25.6976 117.857 24.0628 117.048 22.1443C116.238 20.2258 116.017 18.1101 116.412 16.0656C116.807 14.0211 117.801 12.1401 119.266 10.6613C120.732 9.18248 122.605 8.1725 124.646 7.75954C126.686 7.34658 128.804 7.54926 130.73 8.34186C132.655 9.13445 134.302 10.4812 135.461 12.2113C136.619 13.9413 137.238 15.9766 137.238 18.0589C137.246 20.8325 136.154 23.496 134.201 25.4658C132.249 27.4356 129.595 28.551 126.821 28.5674Z" fill="white"/>
<path d="M153.205 17.7872C154.761 18.9759 156.808 19.9354 159.863 20.9047C165.803 22.7909 165.803 24.2907 165.803 25.0111C165.803 26.6976 163.917 28.4463 160.763 28.4463C158.782 28.4004 156.865 27.7376 155.278 26.5503L154.869 26.2457L150.144 29.4353L150.664 30.0476C151.956 31.4365 153.52 32.5448 155.259 33.3036C156.997 34.0625 158.873 34.4556 160.77 34.4587C163.809 34.4587 166.599 33.4762 168.629 31.7243C169.609 30.8982 170.401 29.8716 170.951 28.7135C171.5 27.5554 171.795 26.2929 171.815 25.0111C171.815 22.3161 170.64 20.0532 168.318 18.2849C166.763 17.0962 164.716 16.1367 161.664 15.1674C155.724 13.2713 155.724 11.7846 155.724 11.0642C155.724 9.37444 157.607 7.62575 160.763 7.62575C162.745 7.66992 164.663 8.33291 166.248 9.52181L166.658 9.82963L171.38 6.63679L170.866 6.02443C169.574 4.6358 168.011 3.52763 166.273 2.7688C164.535 2.00997 162.66 1.61669 160.763 1.6134C157.724 1.6134 154.931 2.59581 152.904 4.34778C151.924 5.17445 151.132 6.20173 150.582 7.36035C150.033 8.51896 149.738 9.78197 149.718 11.0642C149.711 13.756 150.887 16.0188 153.205 17.7872Z" fill="white"/>
</svg>
