<svg width="892" height="255" viewBox="0 0 892 255" fill="none" xmlns="http://www.w3.org/2000/svg">
<path fill-rule="evenodd" clip-rule="evenodd" d="M867 85.5V94H876H885V85.5V77H876H867V85.5ZM13.221 91.277L7 97.554V112.039V126.524L28.25 134.987C39.938 139.642 49.734 143.771 50.02 144.163C50.307 144.554 51.769 145.342 53.27 145.913C55.727 146.847 56 147.437 56 151.82C56 159.495 54.931 160 38.671 160H25V153.5V147H16H7V162V177L34.25 176.958L61.5 176.916L68.75 170.046L76 163.176V149.287V135.399L59.25 128.729C50.037 125.061 38.675 120.56 34 118.727L25.5 115.394L25.194 110.088C24.663 100.878 24.3 101 52.155 101H76V93V85H47.721H19.442L13.221 91.277ZM86 131V177H95H104V162V147H122.777H141.554L148.277 140.225L155 133.45V109.225V85H120.5H86V131ZM171.75 91.437L165 97.788V137.394V177H174.5H184V165.593V154.187L191.75 151.016C196.012 149.273 202.757 146.306 206.738 144.423C210.719 142.54 214.431 141 214.988 141C215.633 141 216 147.523 216 159V177H225H234V138.5V100H226H218V92.5V85L198.25 85.043L178.5 85.086L171.75 91.437ZM251.719 90.779L246 96.558V136.779V177H271.981H297.963L304.981 170.379L312 163.758V152.879V142H302.5H293V149.345C293 159.754 292.624 160 276.671 160H264V132.155C264 106.449 264.14 104.183 265.829 102.655C267.328 101.298 269.941 101 280.329 101H293V108.5V116H302.5H312V100.5V85H284.719H257.437L251.719 90.779ZM323 131V177H352H381V168.5V160H361.5H342V148V136H357H372V127.5V119H357H342V110V101H361.5H381V93V85H352H323V131ZM438.221 91.277L432 97.554V112.075V126.596L444.75 131.718C451.762 134.535 461.318 138.3 465.985 140.083C470.651 141.867 475.041 143.898 475.74 144.598C476.44 145.297 477.909 146.154 479.006 146.502C480.631 147.018 481 148.018 481 151.912C481 159.976 480.922 160 454.671 160H432V168.5V177H459.073H486.147L493.064 170.75L499.981 164.5L499.99 149.729C500 135.342 499.941 134.933 497.75 134.048C483.377 128.242 464.002 120.563 458 118.294L450.5 115.458L450.194 110.12C449.698 101.46 450.554 101 467.155 101H481V108.5V116H490.5H500V100.5V85H472.221H444.442L438.221 91.277ZM511 93V101H523H535V139V177H544H553V139V101H565H577V93V85H544H511V93ZM588.018 124.25L588.036 163.5L595.44 170.25L602.844 177H622.699H642.554L649.277 170.225L656 163.45V124.225V85H646.5H637V121.465C637 156.493 636.924 157.97 635.066 158.965C634.002 159.534 627.997 160 621.721 160C611.936 160 610.074 159.739 608.655 158.171C607.18 156.542 607 152.46 607 120.671V85H597.5H588L588.018 124.25ZM683 92V99H675H667V138V177H694.777H722.554L729.277 170.225L736 163.45V130.446V97.442L729.723 91.221L723.446 85H703.223H683V92ZM746 93V101H754.5H763V130.5V160H754.5H746V168.5V177H772H798V168.5V160H789.5H781V130.5V101H789.5H798V93V85H772H746V93ZM815.645 91.089L809 97.177V137.089V177H837.279H865.558L871.779 170.723L878 164.446V132.223V100H870H862V92.5V85H842.145H822.289L815.645 91.089ZM136 113.59C136 130.325 136.45 129.921 117.75 129.967L104 130V115.5V101H120H136V113.59ZM216 111.341V121.682L208.75 124.511C204.762 126.067 197.782 128.839 193.238 130.67C188.694 132.502 184.757 134 184.488 134C184.22 134 184 127.617 184 119.814C184 100.49 183.507 101 202.174 101H216V111.341ZM714.686 103.174C716.987 105.337 717 105.487 717 130.846C717 153.167 716.794 156.57 715.345 158.171C713.888 159.781 711.972 160 699.345 160H685V130.5V101H698.686C711.361 101 712.542 101.161 714.686 103.174ZM860 128.671C860 153.016 859.801 156.562 858.345 158.171C856.888 159.781 854.972 160 842.345 160H828V132.329C828 107.984 828.199 104.438 829.655 102.829C831.112 101.219 833.028 101 845.655 101H860V128.671ZM56 112V120H66H76V112V104H66H56V112ZM432 149V157H441H450V149V141H441H432V149Z" fill="#74FA74"/>
<path fill-rule="evenodd" clip-rule="evenodd" d="M13.221 91.277L7 97.554V112.039V126.524L28.25 134.987C39.938 139.642 49.734 143.771 50.02 144.163C50.307 144.554 51.769 145.342 53.27 145.913C55.727 146.847 56 147.437 56 151.82C56 159.495 54.931 160 38.671 160H25V153.5V147H16H7V162V177L34.25 176.958L61.5 176.916L68.75 170.046L76 163.176V149.287V135.399L59.25 128.729C50.037 125.061 38.675 120.56 34 118.727L25.5 115.394L25.194 110.088C24.663 100.878 24.3 101 52.155 101H76V93V85H47.721H19.442L13.221 91.277ZM86 131V177H95H104V162V147H122.777H141.554L148.277 140.225L155 133.45V109.225V85H120.5H86V131ZM171.75 91.437L165 97.788V137.394V177H174.5H184V165.593V154.187L191.75 151.016C196.012 149.273 202.757 146.306 206.738 144.423C210.719 142.54 214.431 141 214.988 141C215.633 141 216 147.523 216 159V177H225H234V138.5V100H226H218V92.5V85L198.25 85.043L178.5 85.086L171.75 91.437ZM251.719 90.779L246 96.558V136.779V177H271.981H297.963L304.981 170.379L312 163.758V152.879V142H302.5H293V149.345C293 159.754 292.624 160 276.671 160H264V132.155C264 106.449 264.14 104.183 265.829 102.655C267.328 101.298 269.941 101 280.329 101H293V108.5V116H302.5H312V100.5V85H284.719H257.437L251.719 90.779ZM323 131V177H352H381V168.5V160H361.5H342V148V136H357H372V127.5V119H357H342V110V101H361.5H381V93V85H352H323V131ZM438.221 91.277L432 97.554V112.075V126.596L444.75 131.718C451.762 134.535 461.318 138.3 465.985 140.083C470.651 141.867 475.041 143.898 475.74 144.598C476.44 145.297 477.909 146.154 479.006 146.502C480.631 147.018 481 148.018 481 151.912C481 159.976 480.922 160 454.671 160H432V168.5V177H459.073H486.147L493.064 170.75L499.981 164.5L499.99 149.729C500 135.342 499.941 134.933 497.75 134.048C483.377 128.242 464.002 120.563 458 118.294L450.5 115.458L450.194 110.12C449.698 101.46 450.554 101 467.155 101H481V108.5V116H490.5H500V100.5V85H472.221H444.442L438.221 91.277ZM511 93V101H523H535V139V177H544H553V139V101H565H577V93V85H544H511V93ZM588.018 124.25L588.036 163.5L595.44 170.25L602.844 177H622.699H642.554L649.277 170.225L656 163.45V124.225V85H646.5H637V121.465C637 156.493 636.924 157.97 635.066 158.965C634.002 159.534 627.997 160 621.721 160C611.936 160 610.074 159.739 608.655 158.171C607.18 156.542 607 152.46 607 120.671V85H597.5H588L588.018 124.25ZM683 92V99H675H667V138V177H694.777H722.554L729.277 170.225L736 163.45V130.446V97.442L729.723 91.221L723.446 85H703.223H683V92ZM746 93V101H754.5H763V130.5V160H754.5H746V168.5V177H772H798V168.5V160H789.5H781V130.5V101H789.5H798V93V85H772H746V93ZM815.645 91.089L809 97.177V137.089V177H837.279H865.558L871.779 170.723L878 164.446V132.223V100H870H862V92.5V85H842.145H822.289L815.645 91.089ZM136 113.59C136 130.325 136.45 129.921 117.75 129.967L104 130V115.5V101H120H136V113.59ZM216 111.341V121.682L208.75 124.511C204.762 126.067 197.782 128.839 193.238 130.67C188.694 132.502 184.757 134 184.488 134C184.22 134 184 127.617 184 119.814C184 100.49 183.507 101 202.174 101H216V111.341ZM714.686 103.174C716.987 105.337 717 105.487 717 130.846C717 153.167 716.794 156.57 715.345 158.171C713.888 159.781 711.972 160 699.345 160H685V130.5V101H698.686C711.361 101 712.542 101.161 714.686 103.174ZM860 128.671C860 153.016 859.801 156.562 858.345 158.171C856.888 159.781 854.972 160 842.345 160H828V132.329C828 107.984 828.199 104.438 829.655 102.829C831.112 101.219 833.028 101 845.655 101H860V128.671ZM56 112V120H66H76V112V104H66H56V112ZM432 149V157H441H450V149V141H441H432V149Z" fill="black"/>
</svg>
