<svg width="209" height="61" viewBox="0 0 209 61" fill="none" xmlns="http://www.w3.org/2000/svg">
<path d="M29.9998 58C31.3805 58 32.4998 56.8807 32.4998 55.5C32.4998 54.1193 31.3805 53 29.9998 53C28.619 53 27.4998 54.1193 27.4998 55.5C27.4998 56.8807 28.619 58 29.9998 58Z" fill="white" stroke="white" stroke-width="3.75" stroke-linecap="round" stroke-linejoin="round"/>
<path d="M7.49976 20.5C8.88047 20.5 9.99976 19.3807 9.99976 18C9.99976 16.6193 8.88047 15.5 7.49976 15.5C6.11904 15.5 4.99976 16.6193 4.99976 18C4.99976 19.3807 6.11904 20.5 7.49976 20.5Z" fill="white" stroke="white" stroke-width="3.75" stroke-linecap="round" stroke-linejoin="round"/>
<path d="M7.49976 45.5C8.88047 45.5 9.99976 44.3807 9.99976 43C9.99976 41.6193 8.88047 40.5 7.49976 40.5C6.11904 40.5 4.99976 41.6193 4.99976 43C4.99976 44.3807 6.11904 45.5 7.49976 45.5Z" fill="white" stroke="white" stroke-width="3.75" stroke-linecap="round" stroke-linejoin="round"/>
<path d="M52.5001 18.8826L52.5001 42.1174C52.5001 42.6621 52.2048 43.1641 51.7286 43.4286L30.7286 55.0953C30.2756 55.347 29.7247 55.347 29.2717 55.0953L8.27165 43.4286C7.79546 43.1641 7.50012 42.6621 7.50011 42.1174L7.50007 18.8826C7.50007 18.3379 7.79541 17.8359 8.27161 17.5714L29.2717 5.9047C29.7247 5.65301 30.2756 5.65301 30.7286 5.9047L51.7285 17.5714C52.2047 17.8359 52.5001 18.3378 52.5001 18.8826Z" stroke="white" stroke-width="3.75" stroke-linecap="round" stroke-linejoin="round"/>
<path fill-rule="evenodd" clip-rule="evenodd" d="M52.8888 17.7841C52.3859 16.8789 51.2444 16.5527 50.3392 17.0556L29.9998 28.3553L9.73145 17.0951C8.82623 16.5922 7.68473 16.9184 7.18183 17.8236C6.67893 18.7288 7.00507 19.8703 7.91029 20.3732L28.3608 31.7346C29.3801 32.3009 30.6196 32.3009 31.6389 31.7346L52.1604 20.3337C53.0656 19.8308 53.3917 18.6893 52.8888 17.7841Z" fill="white"/>
<path fill-rule="evenodd" clip-rule="evenodd" d="M30.0002 54.875C28.9647 54.875 28.1252 54.0355 28.1252 53L28.1252 30.5C28.1252 29.4645 28.9647 28.625 30.0002 28.625C31.0358 28.625 31.8752 29.4645 31.8752 30.5L31.8752 53C31.8752 54.0355 31.0358 54.875 30.0002 54.875Z" fill="white"/>
<path d="M74.4601 21.9867V28.6242H69.3751V11.8842H88.5901V15.3492H74.4601V18.5217H87.5101V21.9867H74.4601Z" fill="white"/>
<path d="M95.1091 28.6242H90.0241V11.8842H95.1091V28.6242Z" fill="white"/>
<path d="M96.1616 15.3267V11.8842H117.087V15.3267H109.167V28.6242H104.059V15.3267H96.1616Z" fill="white"/>
<path d="M136.634 26.2167V11.8842H141.741V28.6242H132.854L123.224 14.2917V28.6242H118.139V11.8842H127.004L136.634 26.2167Z" fill="white"/>
<path d="M163.364 28.6242H144.149V11.8842H163.364V15.3492H149.234V18.5217H162.284V21.9867H149.234V25.1592H163.364V28.6242Z" fill="white"/>
<path d="M185.756 22.7067V22.9992C185.756 23.0217 185.756 23.0442 185.756 23.0892V24.4392C185.734 24.6192 185.734 24.7992 185.689 24.9567C185.689 24.9792 185.689 25.0017 185.689 25.0242C185.666 25.1817 185.621 25.3392 185.576 25.4967C185.576 25.5192 185.576 25.5417 185.554 25.5642C185.509 25.6992 185.464 25.8567 185.419 25.9692C185.396 26.0142 185.374 26.0367 185.351 26.0817C185.306 26.1942 185.239 26.3067 185.194 26.4192C185.149 26.4642 185.126 26.5092 185.104 26.5542C185.036 26.6442 184.969 26.7567 184.901 26.8242C184.856 26.8917 184.811 26.9367 184.766 27.0042C184.699 27.0717 184.631 27.1392 184.564 27.2067C184.496 27.2742 184.406 27.3417 184.316 27.4092C184.271 27.4542 184.226 27.4992 184.181 27.5217C183.146 28.2867 181.616 28.6467 179.636 28.6242H170.996C168.994 28.6467 167.464 28.2867 166.429 27.5217C166.384 27.4992 166.339 27.4542 166.294 27.4092C166.204 27.3417 166.114 27.2742 166.046 27.2067C165.979 27.1392 165.911 27.0717 165.844 27.0042C165.799 26.9367 165.754 26.8917 165.709 26.8242C165.641 26.7567 165.574 26.6442 165.506 26.5542C165.484 26.5092 165.461 26.4642 165.439 26.4192C165.371 26.3067 165.304 26.1942 165.259 26.0817C165.236 26.0367 165.214 26.0142 165.191 25.9692C165.146 25.8567 165.101 25.6992 165.056 25.5642C165.056 25.5417 165.034 25.5192 165.034 25.4967C164.989 25.3392 164.944 25.1817 164.921 25.0242C164.921 25.0017 164.921 24.9792 164.921 24.9567C164.876 24.7992 164.876 24.6192 164.854 24.4392C164.854 24.4167 164.854 24.4167 164.854 24.4167V22.9542H169.331V23.4267C169.331 23.4942 169.354 23.5842 169.354 23.6517V23.6742C169.376 23.7417 169.376 23.8092 169.399 23.8767L169.421 23.8992C169.421 23.9667 169.444 24.0117 169.466 24.0792C169.489 24.0792 169.489 24.1017 169.489 24.1017C169.511 24.1692 169.534 24.2142 169.579 24.2592C169.579 24.2817 169.601 24.2817 169.601 24.3042C169.624 24.3492 169.646 24.3942 169.691 24.4167C169.714 24.4392 169.736 24.4617 169.736 24.4842C169.781 24.5292 169.804 24.5517 169.826 24.5742C169.849 24.6192 169.894 24.6417 169.939 24.6642C169.939 24.6867 169.961 24.7092 169.984 24.7092C170.411 25.0242 171.041 25.1817 171.874 25.1817C171.874 25.1817 172.504 25.1592 172.504 25.1817C172.504 25.1817 178.106 25.1817 178.106 25.1592C178.106 25.1592 178.736 25.1817 178.736 25.1592C179.434 25.1817 180.221 25.0917 180.761 24.5967C181.054 24.3267 181.256 23.9442 181.234 23.5617C181.234 23.5167 181.234 23.4717 181.234 23.4267C181.166 22.9992 180.874 22.6167 180.514 22.3692C180.019 22.0542 179.411 21.9867 178.826 21.9867H170.771C170.546 21.9867 170.344 21.9867 170.141 21.9642C170.096 21.9642 170.051 21.9642 170.006 21.9642C169.804 21.9417 169.601 21.9417 169.421 21.9192C169.399 21.9192 169.376 21.8967 169.331 21.8967C168.746 21.8292 168.206 21.7167 167.734 21.5367C167.711 21.5367 167.689 21.5367 167.644 21.5142C167.509 21.4692 167.374 21.4017 167.239 21.3567C167.194 21.3342 167.171 21.3117 167.126 21.3117C166.564 21.0192 166.091 20.6592 165.731 20.2317C165.709 20.2092 165.686 20.1867 165.664 20.1417C165.596 20.0517 165.529 19.9392 165.461 19.8267C165.439 19.8042 165.439 19.7817 165.416 19.7592C165.214 19.3992 165.056 18.9942 164.966 18.5442C164.944 18.5217 164.944 18.4992 164.944 18.4542C164.921 18.3192 164.899 18.1842 164.876 18.0267C164.876 17.9817 164.876 17.9592 164.876 17.9142C164.854 17.8692 164.854 17.8467 164.854 17.8017V17.5542C164.854 17.5092 164.854 17.4867 164.854 17.4417V16.0692C164.876 15.8892 164.899 15.7317 164.921 15.5517C164.921 15.5292 164.921 15.5067 164.921 15.5067C164.944 15.3267 164.989 15.1692 165.034 15.0342C165.034 14.9892 165.056 14.9667 165.056 14.9442C165.101 14.8092 165.146 14.6742 165.214 14.5392C165.214 14.4942 165.236 14.4717 165.259 14.4267C165.304 14.3142 165.371 14.2017 165.439 14.0892C165.461 14.0442 165.484 13.9992 165.506 13.9542C165.574 13.8642 165.641 13.7742 165.709 13.6842C165.754 13.6167 165.799 13.5717 165.866 13.5267C165.911 13.4592 165.979 13.3692 166.046 13.3242C166.114 13.2342 166.204 13.1667 166.294 13.0992C166.339 13.0542 166.384 13.0317 166.429 12.9867C167.464 12.2442 168.994 11.8617 170.996 11.8842H179.636C181.616 11.8617 183.146 12.2442 184.181 12.9867C184.226 13.0317 184.271 13.0542 184.316 13.0992C184.406 13.1667 184.496 13.2342 184.564 13.3242C184.631 13.3692 184.699 13.4592 184.766 13.5267C184.811 13.5717 184.856 13.6167 184.901 13.6842C184.969 13.7742 185.036 13.8642 185.104 13.9542C185.126 13.9992 185.149 14.0442 185.194 14.0892C185.261 14.2017 185.306 14.3142 185.374 14.4267C185.374 14.4717 185.396 14.4942 185.419 14.5392C185.464 14.6742 185.509 14.8092 185.554 14.9442C185.576 14.9667 185.576 14.9892 185.576 15.0342C185.621 15.1692 185.666 15.3267 185.689 15.5067C185.689 15.5067 185.689 15.5292 185.689 15.5517C185.734 15.7317 185.734 15.9117 185.756 16.0917V17.5767H181.279C181.279 17.5767 181.279 17.1042 181.279 17.0817C181.279 17.0142 181.279 16.9467 181.256 16.8792C181.256 16.8567 181.256 16.8567 181.256 16.8342C181.234 16.7667 181.234 16.7217 181.211 16.6542C181.211 16.6317 181.211 16.6317 181.189 16.6092C181.189 16.5642 181.166 16.4967 181.144 16.4517C181.121 16.4292 181.121 16.4067 181.121 16.4067C181.099 16.3617 181.076 16.3167 181.054 16.2492C181.031 16.2492 181.031 16.2267 181.009 16.2042C180.986 16.1592 180.964 16.1367 180.919 16.0917C180.919 16.0692 180.896 16.0467 180.874 16.0242C180.851 16.0017 180.806 15.9567 180.784 15.9342C180.761 15.9117 180.716 15.8667 180.694 15.8442C180.671 15.8442 180.649 15.8217 180.626 15.7992C180.199 15.4842 179.569 15.3267 178.736 15.3492H171.874C171.064 15.3267 170.029 15.4392 169.579 16.2267C169.354 16.6092 169.331 17.0817 169.511 17.4867C169.804 18.1842 170.501 18.4092 171.199 18.4992H171.221C171.311 18.4992 171.379 18.5217 171.469 18.5217C171.491 18.5217 171.514 18.5217 171.536 18.5217C171.604 18.5217 171.694 18.5217 171.784 18.5217H179.839C180.064 18.5217 180.266 18.5442 180.469 18.5442C180.514 18.5442 180.559 18.5442 180.604 18.5667C180.806 18.5667 181.009 18.5892 181.189 18.6117C181.211 18.6117 181.234 18.6117 181.279 18.6117C181.864 18.6792 182.404 18.8142 182.876 18.9717C182.899 18.9717 182.921 18.9942 182.966 18.9942C183.101 19.0392 183.236 19.1067 183.371 19.1742C183.416 19.1742 183.439 19.1967 183.484 19.2192C184.046 19.4892 184.519 19.8492 184.879 20.2767C184.901 20.3217 184.924 20.3442 184.946 20.3667C185.014 20.4792 185.081 20.5692 185.149 20.6817C185.171 20.7042 185.171 20.7267 185.194 20.7492C185.396 21.1092 185.554 21.5142 185.644 21.9642C185.666 21.9867 185.666 22.0317 185.666 22.0542C185.689 22.1892 185.711 22.3467 185.734 22.4817C185.734 22.5267 185.734 22.5717 185.734 22.6167C185.756 22.6392 185.756 22.6842 185.756 22.7067Z" fill="white"/>
<path d="M208.207 22.7067V22.9992C208.207 23.0217 208.207 23.0442 208.207 23.0892V24.4392C208.185 24.6192 208.185 24.7992 208.14 24.9567C208.14 24.9792 208.14 25.0017 208.14 25.0242C208.117 25.1817 208.072 25.3392 208.027 25.4967C208.027 25.5192 208.027 25.5417 208.005 25.5642C207.96 25.6992 207.915 25.8567 207.87 25.9692C207.847 26.0142 207.825 26.0367 207.802 26.0817C207.757 26.1942 207.69 26.3067 207.645 26.4192C207.6 26.4642 207.577 26.5092 207.555 26.5542C207.487 26.6442 207.42 26.7567 207.352 26.8242C207.307 26.8917 207.262 26.9367 207.217 27.0042C207.15 27.0717 207.082 27.1392 207.015 27.2067C206.947 27.2742 206.857 27.3417 206.767 27.4092C206.722 27.4542 206.677 27.4992 206.632 27.5217C205.597 28.2867 204.067 28.6467 202.087 28.6242H193.447C191.445 28.6467 189.915 28.2867 188.88 27.5217C188.835 27.4992 188.79 27.4542 188.745 27.4092C188.655 27.3417 188.565 27.2742 188.497 27.2067C188.43 27.1392 188.362 27.0717 188.295 27.0042C188.25 26.9367 188.205 26.8917 188.16 26.8242C188.092 26.7567 188.025 26.6442 187.957 26.5542C187.935 26.5092 187.912 26.4642 187.89 26.4192C187.822 26.3067 187.755 26.1942 187.71 26.0817C187.687 26.0367 187.665 26.0142 187.642 25.9692C187.597 25.8567 187.552 25.6992 187.507 25.5642C187.507 25.5417 187.485 25.5192 187.485 25.4967C187.44 25.3392 187.395 25.1817 187.372 25.0242C187.372 25.0017 187.372 24.9792 187.372 24.9567C187.327 24.7992 187.327 24.6192 187.305 24.4392C187.305 24.4167 187.305 24.4167 187.305 24.4167V22.9542H191.782V23.4267C191.782 23.4942 191.805 23.5842 191.805 23.6517V23.6742C191.827 23.7417 191.827 23.8092 191.85 23.8767L191.872 23.8992C191.872 23.9667 191.895 24.0117 191.917 24.0792C191.94 24.0792 191.94 24.1017 191.94 24.1017C191.962 24.1692 191.985 24.2142 192.03 24.2592C192.03 24.2817 192.052 24.2817 192.052 24.3042C192.075 24.3492 192.097 24.3942 192.142 24.4167C192.165 24.4392 192.187 24.4617 192.187 24.4842C192.232 24.5292 192.255 24.5517 192.277 24.5742C192.3 24.6192 192.345 24.6417 192.39 24.6642C192.39 24.6867 192.412 24.7092 192.435 24.7092C192.862 25.0242 193.492 25.1817 194.325 25.1817C194.325 25.1817 194.955 25.1592 194.955 25.1817C194.955 25.1817 200.557 25.1817 200.557 25.1592C200.557 25.1592 201.187 25.1817 201.187 25.1592C201.885 25.1817 202.672 25.0917 203.212 24.5967C203.505 24.3267 203.707 23.9442 203.685 23.5617C203.685 23.5167 203.685 23.4717 203.685 23.4267C203.617 22.9992 203.325 22.6167 202.965 22.3692C202.47 22.0542 201.862 21.9867 201.277 21.9867H193.222C192.997 21.9867 192.795 21.9867 192.592 21.9642C192.547 21.9642 192.502 21.9642 192.457 21.9642C192.255 21.9417 192.052 21.9417 191.872 21.9192C191.85 21.9192 191.827 21.8967 191.782 21.8967C191.197 21.8292 190.657 21.7167 190.185 21.5367C190.162 21.5367 190.14 21.5367 190.095 21.5142C189.96 21.4692 189.825 21.4017 189.69 21.3567C189.645 21.3342 189.622 21.3117 189.577 21.3117C189.015 21.0192 188.542 20.6592 188.182 20.2317C188.16 20.2092 188.137 20.1867 188.115 20.1417C188.047 20.0517 187.98 19.9392 187.912 19.8267C187.89 19.8042 187.89 19.7817 187.867 19.7592C187.665 19.3992 187.507 18.9942 187.417 18.5442C187.395 18.5217 187.395 18.4992 187.395 18.4542C187.372 18.3192 187.35 18.1842 187.327 18.0267C187.327 17.9817 187.327 17.9592 187.327 17.9142C187.305 17.8692 187.305 17.8467 187.305 17.8017V17.5542C187.305 17.5092 187.305 17.4867 187.305 17.4417V16.0692C187.327 15.8892 187.35 15.7317 187.372 15.5517C187.372 15.5292 187.372 15.5067 187.372 15.5067C187.395 15.3267 187.44 15.1692 187.485 15.0342C187.485 14.9892 187.507 14.9667 187.507 14.9442C187.552 14.8092 187.597 14.6742 187.665 14.5392C187.665 14.4942 187.687 14.4717 187.71 14.4267C187.755 14.3142 187.822 14.2017 187.89 14.0892C187.912 14.0442 187.935 13.9992 187.957 13.9542C188.025 13.8642 188.092 13.7742 188.16 13.6842C188.205 13.6167 188.25 13.5717 188.317 13.5267C188.362 13.4592 188.43 13.3692 188.497 13.3242C188.565 13.2342 188.655 13.1667 188.745 13.0992C188.79 13.0542 188.835 13.0317 188.88 12.9867C189.915 12.2442 191.445 11.8617 193.447 11.8842H202.087C204.067 11.8617 205.597 12.2442 206.632 12.9867C206.677 13.0317 206.722 13.0542 206.767 13.0992C206.857 13.1667 206.947 13.2342 207.015 13.3242C207.082 13.3692 207.15 13.4592 207.217 13.5267C207.262 13.5717 207.307 13.6167 207.352 13.6842C207.42 13.7742 207.487 13.8642 207.555 13.9542C207.577 13.9992 207.6 14.0442 207.645 14.0892C207.712 14.2017 207.757 14.3142 207.825 14.4267C207.825 14.4717 207.847 14.4942 207.87 14.5392C207.915 14.6742 207.96 14.8092 208.005 14.9442C208.027 14.9667 208.027 14.9892 208.027 15.0342C208.072 15.1692 208.117 15.3267 208.14 15.5067C208.14 15.5067 208.14 15.5292 208.14 15.5517C208.185 15.7317 208.185 15.9117 208.207 16.0917V17.5767H203.73C203.73 17.5767 203.73 17.1042 203.73 17.0817C203.73 17.0142 203.73 16.9467 203.707 16.8792C203.707 16.8567 203.707 16.8567 203.707 16.8342C203.685 16.7667 203.685 16.7217 203.662 16.6542C203.662 16.6317 203.662 16.6317 203.64 16.6092C203.64 16.5642 203.617 16.4967 203.595 16.4517C203.572 16.4292 203.572 16.4067 203.572 16.4067C203.55 16.3617 203.527 16.3167 203.505 16.2492C203.482 16.2492 203.482 16.2267 203.46 16.2042C203.437 16.1592 203.415 16.1367 203.37 16.0917C203.37 16.0692 203.347 16.0467 203.325 16.0242C203.302 16.0017 203.257 15.9567 203.235 15.9342C203.212 15.9117 203.167 15.8667 203.145 15.8442C203.122 15.8442 203.1 15.8217 203.077 15.7992C202.65 15.4842 202.02 15.3267 201.187 15.3492H194.325C193.515 15.3267 192.48 15.4392 192.03 16.2267C191.805 16.6092 191.782 17.0817 191.962 17.4867C192.255 18.1842 192.952 18.4092 193.65 18.4992H193.672C193.762 18.4992 193.83 18.5217 193.92 18.5217C193.942 18.5217 193.965 18.5217 193.987 18.5217C194.055 18.5217 194.145 18.5217 194.235 18.5217H202.29C202.515 18.5217 202.717 18.5442 202.92 18.5442C202.965 18.5442 203.01 18.5442 203.055 18.5667C203.257 18.5667 203.46 18.5892 203.64 18.6117C203.662 18.6117 203.685 18.6117 203.73 18.6117C204.315 18.6792 204.855 18.8142 205.327 18.9717C205.35 18.9717 205.372 18.9942 205.417 18.9942C205.552 19.0392 205.687 19.1067 205.822 19.1742C205.867 19.1742 205.89 19.1967 205.935 19.2192C206.497 19.4892 206.97 19.8492 207.33 20.2767C207.352 20.3217 207.375 20.3442 207.397 20.3667C207.465 20.4792 207.532 20.5692 207.6 20.6817C207.622 20.7042 207.622 20.7267 207.645 20.7492C207.847 21.1092 208.005 21.5142 208.095 21.9642C208.117 21.9867 208.117 22.0317 208.117 22.0542C208.14 22.1892 208.162 22.3467 208.185 22.4817C208.185 22.5267 208.185 22.5717 208.185 22.6167C208.207 22.6392 208.207 22.6842 208.207 22.7067Z" fill="white"/>
<path d="M69.3765 35.8167V32.3742H90.3015V35.8167H82.3815V49.1142H77.274V35.8167H69.3765Z" fill="white"/>
<path d="M112.351 38.3142V42.6792C112.351 42.9042 112.351 43.1292 112.328 43.3542C112.328 43.3992 112.328 43.4667 112.306 43.5117C112.283 43.7367 112.261 43.9392 112.216 44.1192C112.216 44.1642 112.216 44.2092 112.193 44.2542C112.058 44.8842 111.856 45.4692 111.541 45.9642C111.518 46.0092 111.518 46.0317 111.496 46.0767C111.406 46.2117 111.293 46.3692 111.181 46.5267C111.158 46.5492 111.113 46.5942 111.091 46.6392C110.573 47.2467 109.921 47.7642 109.111 48.1467C109.066 48.1692 109.021 48.1917 108.976 48.2142C108.796 48.3042 108.593 48.3717 108.391 48.4617C108.346 48.4617 108.301 48.4842 108.256 48.5067C107.581 48.7317 106.838 48.8892 105.983 49.0017C105.961 49.0017 105.916 49.0017 105.871 49.0017C105.623 49.0467 105.353 49.0692 105.061 49.0692C104.993 49.0917 104.926 49.0917 104.858 49.0917C104.566 49.1142 104.273 49.1142 103.981 49.1142H99.3458C96.5333 49.1592 94.3733 48.6192 92.9108 47.5617C92.8433 47.5167 92.7758 47.4492 92.7083 47.4042C92.5958 47.3142 92.4608 47.2017 92.3483 47.1117C92.2583 47.0217 92.1683 46.9092 92.0783 46.8192C92.0108 46.7292 91.9433 46.6617 91.8758 46.5942C91.7858 46.4592 91.6958 46.3242 91.6058 46.1892C91.5608 46.1217 91.5158 46.0767 91.4708 46.0092C91.3808 45.8517 91.3133 45.6942 91.2233 45.5142C91.2008 45.4692 91.1783 45.4242 91.1558 45.3792C91.0883 45.1767 91.0208 44.9967 90.9533 44.7942C90.9308 44.7492 90.9308 44.7267 90.9083 44.6817C90.8633 44.4567 90.7958 44.2542 90.7733 44.0067C90.7508 43.9842 90.7508 43.9617 90.7508 43.9392C90.7058 43.6917 90.6833 43.4442 90.6608 43.1967C90.6608 43.1742 90.6608 43.1742 90.6608 43.1517V38.8092C90.6608 38.5842 90.6608 38.3592 90.6833 38.1567C90.6833 38.0892 90.6833 38.0442 90.7058 37.9767C90.7283 37.7742 90.7508 37.5717 90.7958 37.3692C90.7958 37.3242 90.7958 37.2792 90.8183 37.2342C90.9533 36.6042 91.1558 36.0417 91.4708 35.5242C91.4708 35.4792 91.4933 35.4567 91.5158 35.4342C91.6058 35.2767 91.7183 35.1192 91.8308 34.9842C91.8533 34.9392 91.8983 34.8942 91.9208 34.8717C92.4383 34.2417 93.0908 33.7242 93.9008 33.3417C93.9458 33.3192 93.9908 33.2967 94.0358 33.2742C94.2158 33.1842 94.4183 33.1167 94.6208 33.0267C94.6658 33.0267 94.7108 33.0042 94.7558 33.0042C95.4308 32.7567 96.1733 32.5992 97.0283 32.4867C97.0508 32.4867 97.0958 32.4867 97.1183 32.4867C97.3883 32.4417 97.6583 32.4192 97.9508 32.4192C98.0183 32.4192 98.0858 32.3967 98.1533 32.3967C98.4458 32.3967 98.7383 32.3742 99.0308 32.3742H103.666C106.478 32.3517 108.638 32.8692 110.101 33.9267C110.168 33.9717 110.236 34.0392 110.303 34.0842C110.416 34.1967 110.551 34.2867 110.663 34.3992C110.753 34.4892 110.843 34.5792 110.933 34.6692C111.001 34.7592 111.068 34.8267 111.136 34.9167C111.226 35.0292 111.316 35.1642 111.406 35.2992C111.451 35.3667 111.496 35.4342 111.541 35.4792C111.631 35.6367 111.698 35.8167 111.788 35.9742C111.811 36.0192 111.833 36.0642 111.856 36.1317C111.923 36.3117 111.991 36.5142 112.058 36.6942C112.081 36.7392 112.081 36.7842 112.103 36.8067C112.148 37.0317 112.193 37.2567 112.238 37.4817C112.238 37.5042 112.261 37.5267 112.261 37.5717C112.306 37.7967 112.328 38.0442 112.351 38.3142ZM107.243 42.1167C107.243 42.0042 107.266 41.8917 107.266 41.7792L107.243 39.4617C107.243 39.3267 107.221 39.1917 107.198 39.0567C107.198 39.0342 107.198 39.0342 107.198 39.0117C107.176 38.8992 107.153 38.7642 107.108 38.6517C107.108 38.6517 107.108 38.6292 107.108 38.6067C107.063 38.4942 107.041 38.4042 106.996 38.2917C106.973 38.2692 106.973 38.2467 106.951 38.2242C106.906 38.1342 106.861 38.0442 106.816 37.9542C106.793 37.9317 106.771 37.8867 106.748 37.8642C106.703 37.7967 106.658 37.7292 106.613 37.6617C106.568 37.6167 106.546 37.5717 106.501 37.5267C106.456 37.4817 106.411 37.4142 106.366 37.3692C106.298 37.3242 106.231 37.2792 106.163 37.2117C106.141 37.1892 106.096 37.1667 106.073 37.1217C105.286 36.5592 104.138 36.2892 102.653 36.3117H100.201C100.043 36.3117 99.8858 36.3117 99.7283 36.3117C99.6833 36.3342 99.6608 36.3342 99.6158 36.3342C99.4808 36.3342 99.3233 36.3567 99.1883 36.3567C99.1658 36.3567 99.1433 36.3792 99.1208 36.3792C98.6708 36.4242 98.2883 36.5142 97.9283 36.6267C97.9058 36.6492 97.8833 36.6492 97.8608 36.6492C97.7483 36.6942 97.6358 36.7392 97.5458 36.7842C97.5233 36.8067 97.5008 36.8067 97.4783 36.8292C97.0508 37.0317 96.6908 37.3017 96.4208 37.6167C96.3983 37.6392 96.3983 37.6617 96.3758 37.6842C96.3083 37.7517 96.2633 37.8417 96.2183 37.9317C96.1958 37.9317 96.1958 37.9542 96.1733 37.9767C96.0158 38.2467 95.9033 38.5617 95.8358 38.8767C95.8358 38.8992 95.8358 38.9217 95.8133 38.9442C95.7908 39.0567 95.7908 39.1692 95.7683 39.2817C95.7683 39.3042 95.7683 39.3267 95.7683 39.3717C95.7458 39.4842 95.7458 39.5967 95.7458 39.7317L95.7683 42.0267C95.7683 42.0267 95.7683 42.0267 95.7683 42.0492C95.7683 42.1842 95.7908 42.2967 95.8133 42.4317C95.8133 42.4542 95.8133 42.4542 95.8133 42.4767C95.8358 42.5892 95.8583 42.7242 95.8808 42.8367C95.9033 42.8592 95.9033 42.8592 95.9033 42.8817C95.9483 42.9942 95.9708 43.1067 96.0158 43.1967C96.0383 43.2192 96.0383 43.2417 96.0608 43.2642C96.1058 43.3542 96.1283 43.4442 96.1958 43.5342C96.2183 43.5567 96.2408 43.6017 96.2408 43.6242C96.3083 43.6917 96.3533 43.7817 96.3983 43.8492C96.4433 43.8717 96.4658 43.9167 96.5108 43.9617C96.5558 44.0067 96.6008 44.0742 96.6458 44.1192C96.7133 44.1642 96.7808 44.2317 96.8483 44.2767C96.8708 44.2992 96.9158 44.3442 96.9383 44.3667C97.7258 44.9292 98.8733 45.1992 100.358 45.1767H102.811C102.968 45.1767 103.126 45.1767 103.283 45.1767C103.328 45.1767 103.351 45.1767 103.396 45.1542C103.531 45.1542 103.688 45.1317 103.823 45.1317C103.846 45.1317 103.868 45.1317 103.891 45.1092C104.318 45.0642 104.723 44.9742 105.083 44.8617C105.106 44.8392 105.128 44.8392 105.151 44.8392C105.263 44.7942 105.376 44.7492 105.466 44.7042C105.488 44.7042 105.511 44.6817 105.533 44.6592C105.961 44.4567 106.321 44.1867 106.591 43.8717C106.613 43.8492 106.613 43.8267 106.636 43.8042C106.703 43.7367 106.748 43.6467 106.793 43.5567C106.816 43.5567 106.816 43.5342 106.838 43.5117C106.996 43.2417 107.108 42.9492 107.176 42.6117C107.176 42.5892 107.176 42.5667 107.198 42.5442C107.198 42.4317 107.221 42.3192 107.243 42.2067C107.243 42.1842 107.243 42.1617 107.243 42.1167Z" fill="white"/>
<path d="M112.718 35.8167V32.3742H133.643V35.8167H125.723V49.1142H120.616V35.8167H112.718Z" fill="white"/>
<path d="M137.415 46.0767L135.772 49.1142H130.395L139.35 32.3742H146.505L155.482 49.1142H150.082L148.44 46.0767H137.415ZM142.927 35.7717L139.26 42.6117H146.595L142.927 35.7717Z" fill="white"/>
<path d="M161.374 45.6492H175.504V49.1142H156.289V32.3742H161.374V45.6492Z" fill="white"/>
</svg>
